<svg width="37" height="31" viewBox="0 0 37 31" fill="none" xmlns="http://www.w3.org/2000/svg"><g clip-path="url(#clip0_1882_2012)"><path d="M36.94 29.813c0 .653-.477 1.187-1.062 1.187H1.471c-.585 0-1.063-.534-1.063-1.187V1.187C.408.534.886 0 1.471 0h34.407c.585 0 1.062.534 1.062 1.187v28.626Z" fill="#000"></path><path d="M10.208 22.036H6.362l-.555 1.827h-1.79l2.965-9.515h2.54l3.011 9.515h-1.757l-.568-1.827Zm-.391-1.33-1.542-4.957-1.515 4.956h3.057Zm11.76-6.358v9.515h-2.866l-2.547-5.221c-.127-.26-.324-.716-.594-1.367l-.287-.683-.281-.683h-.065l.025.628.02.62.013 1.248v5.459h-1.691v-9.517h2.867l2.318 4.825c.244.514.482 1.032.712 1.554l.34.774.339.78h.059l-.02-.613-.02-.613-.012-1.227v-5.48h1.69Zm1.568 9.515v-9.515h4.381c1.028 0 1.728.175 2.1.526.372.35.559 1.012.559 1.983 0 1.176-.438 1.868-1.313 2.078v.035c1.019.167 1.528.922 1.528 2.265 0 .971-.196 1.652-.588 2.043-.392.39-1.075.585-2.05.585h-4.617Zm1.691-5.521h2.07c.671 0 1.099-.08 1.284-.237.185-.158.277-.523.277-1.095 0-.762-.404-1.143-1.214-1.143h-2.417v2.475Zm0 4.001h1.855l.594-.013c.57 0 .946-.086 1.127-.258.18-.172.27-.534.27-1.088 0-.576-.094-.939-.283-1.087-.19-.149-.656-.223-1.4-.223h-2.162v2.67Zm8.483-7.995v9.515h-1.691v-9.515h1.691ZM15.352 5.426c.062.335.377 1.93.46 2.247a.856.856 0 0 0-.283 0 11.155 11.155 0 0 0-.14-.872 9.892 9.892 0 0 0-.413-.01c-.137 0-.274.007-.41.01-.113.175-.39.662-.49.872-.028-.006-.056-.013-.1-.013-.034 0-.07.007-.118.013a81.39 81.39 0 0 0 1.061-1.653c.156-.249.265-.41.374-.594h.06Zm-.158.393h-.01l-.541.856c.24.013.481.013.721 0l-.17-.856Zm1.154 1.854a.61.61 0 0 0-.252 0c.203-.778.424-1.944.49-2.415.033.006.064.013.117.013.047 0 .1-.007.144-.013-.047.171-.418 1.863-.499 2.415Zm.841-.588c-.05-.022-.224-.1-.224-.361 0-.304.237-.61.682-.61.102 0 .146.012.236.038a.512.512 0 0 0 .16.016c.074 0 .226-.01.307-.013 0 .02-.006.042-.006.068 0 .026.006.049.006.068a12.94 12.94 0 0 0-.296-.016c.035.045.088.12.088.265 0 .18-.09.407-.3.526a.852.852 0 0 1-.42.09c-.068 0-.133-.003-.18-.006-.034.023-.127.077-.127.178 0 .129.13.132.23.132.351.003.463.003.578.074.116.071.137.2.137.281 0 .249-.205.7-.802.7-.147 0-.29-.025-.392-.112a.395.395 0 0 1-.105-.136.422.422 0 0 1-.04-.17c0-.153.088-.295.207-.372a.78.78 0 0 1 .162-.08l.003-.024c-.047-.012-.171-.051-.171-.186 0-.2.174-.281.267-.327v-.023Zm.103 1.334c.373 0 .557-.275.557-.504 0-.252-.255-.261-.424-.261-.08 0-.233.006-.341.08a.41.41 0 0 0-.175.346c0 .242.184.339.383.339Zm.199-1.356c.302 0 .414-.352.414-.55 0-.187-.106-.306-.274-.306-.314 0-.426.345-.426.533 0 .245.155.323.286.323Zm2.058.497a.976.976 0 0 1-.507.142c-.268 0-.62-.152-.62-.665 0-.507.324-.92.8-.92.295 0 .557.138.557.529 0 .12-.022.207-.035.262a14.133 14.133 0 0 0-1.064-.01 1.15 1.15 0 0 0-.015.187c0 .42.277.5.451.5.24 0 .393-.116.464-.17h.01l-.041.145Zm-.847-.791c.128.01.296.013.424.013.12 0 .298 0 .414-.013a.721.721 0 0 0 .018-.174c0-.288-.174-.385-.336-.385-.168 0-.426.113-.52.559Zm1.734-.384h.006c.072-.078.23-.259.511-.259.299 0 .354.2.383.314.096-.126.258-.314.544-.314.27 0 .405.181.405.342 0 .068-.022.178-.047.3l-.119.588c-.037.184-.043.265-.05.317a.66.66 0 0 0-.255 0c.053-.158.243-.94.243-1.111 0-.181-.118-.284-.283-.284a.474.474 0 0 0-.445.367c-.05.175-.162.779-.199 1.027a.724.724 0 0 0-.118-.012.886.886 0 0 0-.134.012c.069-.223.236-.94.236-1.136 0-.19-.152-.258-.276-.258-.07 0-.337.022-.446.374-.05.161-.17.823-.193 1.02a.688.688 0 0 0-.124-.012.726.726 0 0 0-.125.012c.103-.371.268-1.172.312-1.53a.523.523 0 0 0 .236 0l-.062.243ZM23.7 7.56a.977.977 0 0 1-.507.142c-.268 0-.62-.152-.62-.665 0-.507.324-.92.8-.92.295 0 .557.138.557.529 0 .12-.022.207-.035.262a14.177 14.177 0 0 0-1.064-.01c-.006.042-.016.103-.016.187 0 .42.278.5.452.5.24 0 .392-.116.464-.17h.009l-.04.145Zm-.847-.791c.128.01.296.013.424.013.12 0 .298 0 .413-.013a.715.715 0 0 0 .019-.174c0-.288-.175-.385-.337-.385-.167 0-.425.113-.519.559Zm2.403.791a.976.976 0 0 1-.507.142c-.268 0-.62-.152-.62-.665 0-.507.324-.92.8-.92.296 0 .557.138.557.529 0 .12-.022.207-.034.262a14.15 14.15 0 0 0-1.064-.01 1.084 1.084 0 0 0-.016.187c0 .42.277.5.451.5.24 0 .392-.116.464-.17h.01l-.041.145Zm-.846-.791c.14.01.282.013.423.013.121 0 .299 0 .414-.013a.715.715 0 0 0 .018-.174c0-.288-.174-.385-.336-.385-.168 0-.426.113-.52.559Zm1.746-.387.013.006a.682.682 0 0 1 .513-.262c.22 0 .436.13.436.388 0 .084-.007.116-.072.407-.034.151-.128.616-.14.752a.65.65 0 0 0-.255 0c.047-.145.233-.885.233-1.107 0-.194-.152-.288-.308-.288a.477.477 0 0 0-.45.346c-.072.223-.2.946-.216 1.05a.587.587 0 0 0-.24 0c.085-.298.275-1.27.315-1.531a.56.56 0 0 0 .23 0l-.059.239Zm2.708-.95c.18.336 1.037 1.628 1.19 1.812.052-.204.26-1.244.32-1.783a.55.55 0 0 0 .109.013c.04 0 .062-.007.093-.013-.115.413-.436 1.947-.47 2.247h-.043a49.685 49.685 0 0 0-1.189-1.798c-.09.38-.305 1.465-.327 1.763a.513.513 0 0 0-.106-.013.609.609 0 0 0-.108.013c.143-.443.447-1.954.494-2.241h.037Zm2.89 2.021-.013-.012a.679.679 0 0 1-.53.268c-.204 0-.435-.133-.435-.372 0-.08.04-.249.097-.51.025-.113.093-.452.122-.684a.821.821 0 0 0 .27 0c-.084.322-.243.923-.243 1.1 0 .2.112.31.302.31.24 0 .401-.177.464-.374.077-.242.196-.978.205-1.036.044.006.085.012.124.012.047 0 .09-.006.128-.012-.062.213-.274 1.14-.314 1.53-.038-.006-.072-.013-.112-.013a.661.661 0 0 0-.122.013l.056-.22Zm1.313-1.714c-.04.148-.071.297-.102.446.096 0 .214-.01.323-.013a.491.491 0 0 0-.018.132c-.109-.003-.237-.013-.33-.013l-.122.607c-.028.139-.071.35-.071.452 0 .171.13.236.22.236a.396.396 0 0 0 .206-.065l-.006.084a.538.538 0 0 1-.318.1c-.161 0-.333-.103-.333-.303 0-.084.022-.18.044-.288.09-.442.106-.49.168-.823-.06 0-.137.003-.205.006a.327.327 0 0 0 .018-.125c.066.003.147.012.2.012l.056-.342.27-.103ZM8.394 10.108c.36.035.467.268.467.435a.728.728 0 0 1-.401.624 1.258 1.258 0 0 1-.56.116c-.063 0-.337-.013-.393-.013-.059 0-.1.007-.14.013.159-.623.364-1.643.451-2.212.044.004.112.013.165.013.118 0 .261-.013.405-.013.171 0 .29.023.382.075.144.08.194.226.194.332 0 .323-.312.56-.564.607l-.006.022Zm-.165.061a1.525 1.525 0 0 0-.214-.013c-.056 0-.122 0-.174.003-.069.33-.131.662-.187.995a.979.979 0 0 0 .2.016c.102 0 .264-.01.398-.068a.636.636 0 0 0 .351-.555c0-.23-.168-.35-.374-.378Zm.11-.991c-.094 0-.19.003-.284.013-.106.452-.143.62-.19.855.047.007.093.01.162.01.11 0 .296-.01.436-.097a.533.533 0 0 0 .248-.449c0-.239-.16-.332-.373-.332Zm1.98 1.992a.974.974 0 0 1-.508.142c-.268 0-.62-.152-.62-.665 0-.507.325-.92.8-.92.296 0 .558.138.558.53 0 .119-.022.206-.035.26a14.468 14.468 0 0 0-1.064-.01c-.01.062-.015.125-.015.188 0 .42.276.5.45.5.24 0 .393-.116.464-.17h.01l-.04.145Zm-.848-.791c.128.01.296.013.424.013.121 0 .299 0 .414-.013a.718.718 0 0 0 .018-.175c0-.287-.174-.384-.336-.384-.167 0-.426.113-.52.559Zm2.142-.656c.492 0 .663.304.663.63 0 .474-.345.962-.88.962-.514 0-.651-.371-.651-.65 0-.46.33-.942.868-.942Zm-.227 1.489c.47 0 .645-.597.645-.917 0-.268-.147-.468-.415-.468-.45 0-.625.558-.625.917 0 .27.115.468.395.468Zm1.417-.517c-.05-.022-.224-.1-.224-.361 0-.304.236-.61.681-.61.103 0 .147.012.237.038a.505.505 0 0 0 .159.016c.074 0 .226-.01.308-.013 0 .02-.007.042-.007.068 0 .026.007.049.007.068a11.741 11.741 0 0 0-.296-.016.4.4 0 0 1 .087.264c0 .181-.09.408-.298.527a.854.854 0 0 1-.42.09c-.07 0-.135-.003-.181-.006-.034.022-.127.077-.127.177 0 .13.13.133.23.133.351.003.464.003.578.074.116.071.138.2.138.281 0 .249-.206.7-.803.7-.146 0-.29-.025-.393-.113a.396.396 0 0 1-.104-.136.42.42 0 0 1-.04-.17.46.46 0 0 1 .206-.372.8.8 0 0 1 .163-.08l.003-.023c-.047-.013-.171-.052-.171-.187 0-.2.174-.281.267-.326v-.023Zm.102 1.334c.374 0 .558-.275.558-.504 0-.252-.255-.261-.424-.261-.08 0-.233.006-.342.08a.392.392 0 0 0-.13.149.424.424 0 0 0-.044.197c0 .242.184.339.383.339Zm.2-1.357c.302 0 .413-.352.413-.548 0-.188-.106-.307-.274-.307-.314 0-.426.345-.426.533 0 .245.156.322.287.322Zm2.057.498a.975.975 0 0 1-.507.142c-.268 0-.62-.152-.62-.665 0-.507.325-.92.8-.92.296 0 .558.138.558.53 0 .119-.022.206-.034.26a14.517 14.517 0 0 0-1.065-.01c-.01.062-.015.125-.015.188 0 .42.277.5.451.5.24 0 .392-.116.464-.17h.01l-.042.145Zm-.846-.791c.141.009.282.013.423.013.121 0 .3 0 .414-.013a.704.704 0 0 0 .019-.175c0-.287-.174-.384-.336-.384-.169 0-.427.113-.52.559Zm1.747-.388.012.007a.683.683 0 0 1 .513-.262c.221 0 .436.13.436.388 0 .084-.007.116-.072.406-.034.152-.127.617-.14.753a.657.657 0 0 0-.255 0c.046-.145.233-.885.233-1.108 0-.193-.152-.287-.307-.287a.477.477 0 0 0-.452.345c-.071.223-.199.946-.214 1.05a.587.587 0 0 0-.24 0 23.01 23.01 0 0 0 .314-1.53.535.535 0 0 0 .23 0l-.058.238Zm2.402 1.004c-.102.136-.249.33-.553.33-.377 0-.56-.297-.56-.63 0-.407.264-.965.812-.965.332 0 .426.216.47.32h.012c.075-.407.162-.83.214-1.182a.661.661 0 0 0 .246 0c-.18.765-.245 1.12-.379 1.801-.04.204-.076.408-.106.613-.028-.006-.053-.012-.106-.012s-.084.006-.118.012l.068-.287Zm-.488.204c.47 0 .604-.633.604-.914 0-.13-.041-.44-.38-.44-.485 0-.6.62-.6.87 0 .313.137.484.376.484Zm2.26-.03a.971.971 0 0 1-.507.143c-.268 0-.62-.152-.62-.665 0-.507.324-.92.8-.92.296 0 .557.138.557.53 0 .119-.021.206-.034.26a14.47 14.47 0 0 0-1.064-.01c-.01.062-.015.125-.015.188 0 .42.276.5.45.5.24 0 .393-.116.464-.17h.01l-.041.145Zm-.847-.79c.128.01.296.013.424.013.121 0 .298 0 .413-.013a.7.7 0 0 0 .019-.175c0-.287-.174-.384-.336-.384-.168 0-.426.113-.52.559Zm2.628-1.308a.857.857 0 0 0 .134.013c.05 0 .102-.006.143-.013-.18.73-.332 1.468-.454 2.212a.822.822 0 0 0-.278 0 30.1 30.1 0 0 0 .455-2.212Zm.85.92.012.007a.682.682 0 0 1 .514-.262c.22 0 .436.13.436.388 0 .084-.007.116-.072.406a9.932 9.932 0 0 0-.14.753.65.65 0 0 0-.256 0c.047-.145.234-.885.234-1.108 0-.193-.153-.287-.308-.287a.476.476 0 0 0-.451.345c-.072.223-.2.946-.215 1.05a.595.595 0 0 0-.24 0c.084-.297.274-1.27.315-1.53a.534.534 0 0 0 .23 0l-.06.238Zm2.147.02a.256.256 0 0 0-.254-.19c-.18 0-.296.157-.296.306 0 .158.127.22.267.284.131.062.28.132.28.343 0 .297-.28.564-.64.564a.593.593 0 0 1-.337-.093c.04-.069.073-.141.1-.216h.022c.046.129.17.193.308.193a.33.33 0 0 0 .339-.333c0-.141-.084-.184-.249-.264-.134-.065-.284-.14-.284-.372 0-.22.153-.52.57-.52a.61.61 0 0 1 .284.065c-.063.145-.072.19-.081.232h-.029Zm.957-.662c-.04.148-.072.297-.103.445.096 0 .214-.01.323-.012a.493.493 0 0 0-.018.132c-.11-.003-.236-.013-.33-.013l-.121.607a3.05 3.05 0 0 0-.072.452c0 .171.13.236.22.236a.395.395 0 0 0 .206-.065l-.006.084a.539.539 0 0 1-.318.1c-.161 0-.332-.103-.332-.303 0-.084.021-.181.043-.288.09-.442.106-.49.168-.823a5.24 5.24 0 0 0-.205.006.332.332 0 0 0 .018-.126c.066.004.146.013.2.013l.055-.342.272-.103Zm1.416 1.82a.974.974 0 0 1-.507.143c-.268 0-.62-.152-.62-.665 0-.507.324-.92.8-.92.296 0 .557.138.557.53 0 .119-.022.206-.034.26a14.489 14.489 0 0 0-1.065-.01c-.005.043-.015.104-.015.188 0 .42.277.5.451.5.24 0 .392-.116.464-.17h.01l-.041.145Zm-.847-.79c.141.009.282.013.424.013.121 0 .298 0 .413-.013a.704.704 0 0 0 .019-.175c0-.287-.174-.384-.336-.384-.168 0-.427.113-.52.559Zm1.51.904a.62.62 0 0 0-.252 0 27.33 27.33 0 0 0 .489-2.415c.034.006.065.012.118.012.047 0 .1-.006.143-.012-.047.17-.417 1.863-.498 2.415Zm.75 0a.62.62 0 0 0-.252 0 26.97 26.97 0 0 0 .489-2.415c.034.006.065.012.118.012.047 0 .1-.006.144-.012-.047.17-.418 1.863-.498 2.415Zm.76 0a1.107 1.107 0 0 0-.143-.013c-.05 0-.09.006-.122.013.137-.458.305-1.408.32-1.53.047.006.088.012.132.012a.69.69 0 0 0 .127-.013c-.059.213-.273 1.147-.314 1.53Zm.293-2.196c.084 0 .149.071.149.155a.166.166 0 0 1-.045.11.145.145 0 0 1-.209 0 .163.163 0 0 1-.045-.11c0-.084.065-.155.15-.155Zm.685.904.012.007a.682.682 0 0 1 .514-.262c.22 0 .435.13.435.388 0 .084-.006.116-.072.406-.034.152-.127.617-.14.753a.654.654 0 0 0-.255 0c.047-.145.234-.885.234-1.108 0-.193-.153-.287-.309-.287a.476.476 0 0 0-.45.345c-.072.223-.2.946-.215 1.05a.595.595 0 0 0-.24 0c.085-.297.274-1.27.315-1.53a.533.533 0 0 0 .23 0l-.059.238Zm1.584.704c-.05-.022-.224-.1-.224-.361 0-.304.237-.61.682-.61.102 0 .146.012.236.038.056.016.093.016.158.016.075 0 .228-.01.308-.013 0 .02-.006.042-.006.068 0 .026.006.049.006.068a11.749 11.749 0 0 0-.295-.016.4.4 0 0 1 .087.264c0 .181-.09.408-.299.527a.852.852 0 0 1-.42.09c-.069 0-.134-.003-.18-.006-.035.022-.128.077-.128.177 0 .13.13.133.23.133.352.003.464.003.58.074.114.071.136.2.136.281 0 .249-.205.7-.803.7-.146 0-.29-.025-.392-.113a.42.42 0 0 1-.143-.307c0-.15.087-.293.205-.37a.793.793 0 0 1 .162-.082l.003-.022c-.047-.013-.171-.052-.171-.187 0-.2.174-.281.267-.326v-.023Zm.103 1.334c.373 0 .557-.275.557-.504 0-.252-.255-.261-.424-.261-.08 0-.233.006-.342.08a.393.393 0 0 0-.13.149.424.424 0 0 0-.044.197c0 .242.184.339.383.339Zm.2-1.357c.3 0 .413-.352.413-.548 0-.188-.106-.307-.274-.307-.314 0-.426.345-.426.533 0 .245.155.322.286.322ZM3.797 28.07a.551.551 0 0 1-.4-.178.628.628 0 0 1-.167-.427v-.112c0-.333.256-.605.567-.605h29.856c.312 0 .567.272.567.605v.112c0 .333-.255.605-.567.605H3.797Z" fill="#fff"></path></g><defs><clipPath id="clip0_1882_2012"><path fill="#fff" transform="translate(.406)" d="M0 0h36.536v31H0z"></path></clipPath></defs></svg>