<svg width="100%" height="100%" viewBox="0 0 627 223" fill="none" xmlns="http://www.w3.org/2000/svg"><path fill-rule="evenodd" clip-rule="evenodd" d="m338.7 39.18-1.74-.4c-11.42-2.64-17.71-4.1-17.71-11.87 0-7.09 6.46-11.68 16.45-11.68 6 0 11.92 1.96 16.69 5.54l.07.05c6.94 4.49 10.9.77 11.95-.48 3.51-4.17 1.68-7.91.54-9.54l.07-.07-1.22-1.25C358.06 3.54 347.5 0 335.56 0c-19.78 0-33.59 11.29-33.59 27.46 0 19.21 15.09 24.29 29.22 27.55l.32.07c11.37 2.64 20.36 4.73 20.36 13.15 0 7.59-6.34 11.95-17.4 11.95-7.92 0-15.37-2.84-20.99-8.01l-.07-.06c-.28-.22-.58-.44-.88-.64-3.75-2.46-7.62-2.07-10.36 1.04-1.78 2.02-2.44 4.25-1.95 6.63.69 3.35 3.55 5.76 4.11 6.2 6.39 6.3 17.71 10.06 30.27 10.06 21.56 0 34.96-10.78 34.96-28.14 0-18.57-15.6-24.62-30.86-28.09zm-22.68-12.27c0 10.33 8.92 12.4 20.21 15.01l1.74.4c14.02 3.19 28.36 8.64 28.36 24.95 0 15.37-12.16 24.91-31.73 24.91-11.8 0-22.29-3.44-28.08-9.21l-.27-.22c-.49-.41-2.44-2.12-2.87-4.26-.28-1.37.1-2.59 1.21-3.85 1.67-1.9 3.75-2.06 6.17-.47.21.14.42.29.58.41 6.2 5.68 14.41 8.82 23.13 8.82 13.11 0 20.63-5.53 20.63-15.18 0-10.98-11.1-13.56-22.86-16.29l-.32-.07c-12.93-2.97-26.72-7.56-26.72-24.4 0-14.27 12.49-24.23 30.36-24.23 11.01 0 20.66 3.14 25.82 8.39l.21.22c.27.28.51.55.7.79 1.35 1.85 1.23 3.75-.36 5.64-.62.73-3 2.9-7.66-.11-5.3-3.97-11.9-6.15-18.58-6.15-11.95 0-19.68 5.85-19.68 14.9zM57.88 56.2H24.7l16.67-43.5zM41.35 21.76 29.39 52.98H53.2z" fill="currentColor"></path><path fill-rule="evenodd" clip-rule="evenodd" d="m81.92 81.49-1.96-4.96L52.69 6.7C51.12 2.57 47.65.73 41.44.73s-9.55 1.84-11.12 5.96L3.29 76.49l-2.14 5.4c-.15.37-.28.75-.41 1.19-1.34 4.53.33 8.09 4.58 9.78l.68.27c1.88.74 3.66.89 5.3.43 1.95-.55 3.53-1.9 4.69-4.01.27-.49.5-.98.7-1.49l2.41-6.08h.08l5.56-14.45h33.1l2.92 7.52h-.03l5.11 12.91c1.82 4.51 4.73 5.68 6.85 5.87q.345.03.69.03c1.12 0 2.3-.24 3.51-.72l.71-.28c4.52-1.79 6.22-5.59 4.67-10.42-.1-.32-.22-.64-.34-.95zm-21.86-17.2H22.53l-5.56 14.45h-.05l-3.22 8.12c-.15.39-.33.75-.53 1.12-.73 1.33-1.65 2.16-2.74 2.46-.94.26-2.03.16-3.23-.32l-.68-.27c-2.7-1.07-3.55-2.93-2.68-5.86.1-.34.2-.64.31-.92l2.14-5.41L33.33 7.85c.91-2.4 2.59-3.89 8.11-3.89 6.23 0 7.49 1.92 8.24 3.9l27.28 69.85 1.97 4.97c.1.24.19.49.27.74 1.04 3.23.15 5.27-2.78 6.43l-.71.28c-.99.39-1.9.55-2.72.47-2.22-.2-3.48-2.21-4.14-3.86l-2.48-6.25-.19-.44-1.26-3.21h.01l-4.87-12.57zM181.83 1.98h56.97c5.1 0 8.02 2.73 8.02 7.48v.68c0 4.76-3 7.61-8.02 7.61h-19.92v68.2c0 5.1-2.87 8.02-7.88 8.02h-1.91c-4.84 0-7.61-2.92-7.61-8.02v-68.2h-19.65c-5.03 0-8.16-2.91-8.16-7.61v-.68c0-4.68 3.05-7.48 8.16-7.48m27.26 88.76h1.9c3.22 0 4.66-1.48 4.66-4.8V14.52h23.14c3.27 0 4.79-1.4 4.79-4.39v-.68c0-2.94-1.47-4.25-4.79-4.25h-56.97c-3.36 0-4.93 1.35-4.93 4.25v.68c0 2.96 1.61 4.39 4.93 4.39h22.88v71.42c0 3.32 1.36 4.8 4.39 4.8m60.58-88.66h1.91c5.03 0 8.15 3.34 8.15 8.71v75.26c0 5.27-2.96 8.3-8.13 8.3h-1.91c-5.09 0-8-3.02-8-8.3V10.79c0-5.37 3.06-8.71 7.98-8.71m6.84 83.97V10.79h-.01c0-2.51-.85-5.49-4.92-5.49h-1.91c-3.93 0-4.75 2.99-4.75 5.49v75.26c0 3.5 1.47 5.07 4.77 5.07h1.91c3.4 0 4.91-1.56 4.91-5.07M110.85 13.57h19.75v-.01c17.45 0 21.11 9.33 21.11 17.16 0 2.08-.29 4.05-.86 5.85-1.63 5.16-6.4 11.31-19.84 11.31h-20.16zm36.92 22.04c.47-1.49.71-3.13.71-4.88h-.01c0-9.24-6.01-13.93-17.88-13.93h-16.52v27.86H131c9.1 0 14.9-3.13 16.77-9.05" fill="currentColor"></path><path fill-rule="evenodd" clip-rule="evenodd" d="M131.28 1.98h-25.09c-5.45 0-9.11 3.83-9.11 9.52v73.63c0 .56.03 1.1.09 1.65.5 4.57 3.19 7.19 7.39 7.19h1.91c4.78 0 7.75-3.07 7.75-8.02V58.98h13.37l22.2 31.43c1.69 2.39 3.76 3.66 5.99 3.66 1.46 0 2.95-.53 4.44-1.58l1.48-1.05c1.96-1.38 3.11-3.03 3.41-4.88s-.26-3.8-1.67-5.79l-17.36-24.58c10.98-2.96 17.67-10.09 19.38-20.66.28-1.76.43-3.61.43-5.48 0-18.36-11.97-28.06-34.61-28.06zm11.78 51.61-2.42.5 20.16 28.55c1.79 2.53 1.49 4.44-.97 6.17l-1.48 1.05c-1.18.83-2.21 1.14-3.14.95-.95-.2-1.87-.94-2.79-2.25l-23.16-32.8h-18.27v30.2c0 3.18-1.52 4.8-4.52 4.8h-1.91c-2.53 0-3.86-1.37-4.18-4.31-.05-.44-.07-.86-.07-1.3V11.5c0-3.88 2.26-6.29 5.89-6.29h25.09c10.38 0 18.31 2.13 23.57 6.33 5.18 4.13 7.81 10.36 7.81 18.51 0 1.7-.13 3.37-.39 4.97-1.6 9.9-8.25 16.33-19.22 18.58z" fill="currentColor"></path><path d="M193.47 127.37c22.07 0 33.37 12.07 33.37 12.07l-6.36 9.61s-10.65-10-26.49-10c-20.52 0-33.89 15.58-33.89 35.06s13.63 36.23 34.02 36.23c17.27 0 28.31-11.94 28.31-11.94l6.88 9.22s-12.6 14.54-35.58 14.54c-27.53 0-46.87-21.03-46.87-47.91s20-46.87 46.61-46.87z" fill="currentColor"></path><path fill-rule="evenodd" clip-rule="evenodd" d="M367.9 127.37c26.49 0 47 20.39 47 46.74s-20.51 48.04-47 48.04-47.13-21.03-47.13-48.04 20.65-46.74 47.13-46.74m0 82.97c18.7 0 33.76-15.58 33.76-36.23s-15.06-35.06-33.76-35.06-33.89 15.06-33.89 35.06 15.19 36.23 33.89 36.23" fill="currentColor"></path><path d="M429 128.93h-.01l.01-.01z" fill="currentColor"></path><path fill-rule="evenodd" clip-rule="evenodd" d="M429 220.59v-91.66h33.49c16.75 0 28.83 11.3 28.83 28.69s-12.07 26.01-28.83 26.01h-20.64v36.96zm49.21-62.96c0 11.03-6.75 14.84-17.79 14.84h-18.57V140.1h18.7c10.91 0 17.66 6.5 17.66 17.53" fill="currentColor"></path><path d="M522.2 128.93h-12.85v91.67h12.85z" fill="currentColor"></path><path fill-rule="evenodd" clip-rule="evenodd" d="M562.29 194.24 552.1 220.6h-14.86l37-91.67h15.15l37 91.67h-15l-10.34-26.36zm19.38-52.71s-2.33 8.31-4.08 12.99l-11.51 29.08h31.17l-11.36-29.08c-1.75-4.67-3.93-12.99-3.93-12.99zm-306.78-12.6h-28.05l.01.01v91.67h12.85l-.03-36.94h19.61l19.38 36.94h14.54l-19.48-35.58c-1.69-2.99-2.73-4.16-2.73-4.16v-.26c10-3.25 16.49-12.73 16.49-24.8s-6.1-21.29-15.45-24.8c-3.51-1.3-7.53-2.08-17.14-2.08m19.47 27.4c0 10.26-6.23 16.11-16.23 16.11h-18.44V140.1h14.8c7.14 0 10.13.78 12.6 2.08 4.67 2.59 7.27 7.4 7.27 14.15" fill="currentColor"></path><path d="M113.77 128.93h12.85v91.67h-12.85zm-104.83 0h13.5l21.03 49.6c2.08 5.06 2.08 5.13 2.08 5.13h.61s-.03-.06 2.04-5.13l21.03-49.6h13.5l8.94 91.67H78.95l-6.08-57.78c-.39-5.58-.13-13.5-.13-13.5h-.26s-2.73 8.44-4.94 13.5l-13.76 31.29H38.1l-13.86-31.29c-2.08-4.94-4.93-13.76-4.93-13.76h-.26s.13 8.18-.26 13.76l-5.95 57.78H0z" fill="currentColor"></path></svg>