<svg width="100%" height="100%" viewBox="0 0 492 300" fill="none" xmlns="http://www.w3.org/2000/svg"><path d="M211.07 1.756h-50.339c-4.516 0-7.207 2.467-7.207 6.599v.601c0 4.144 2.758 6.722 7.207 6.722h17.363v60.201c0 4.5 2.451 7.084 6.728 7.084h1.689c4.43 0 6.968-2.584 6.968-7.084V15.678h17.597c4.436 0 7.084-2.51 7.084-6.722v-.601c0-4.193-2.581-6.6-7.084-6.6m-24.571 78.36h-1.689c-2.679 0-3.877-1.307-3.877-4.236V12.83h-20.215c-2.93 0-4.356-1.264-4.356-3.873v-.601c0-2.56 1.383-3.751 4.356-3.751h50.339c2.931 0 4.234 1.16 4.234 3.75v.602c0 2.646-1.346 3.874-4.234 3.874h-20.447v63.05c0 2.928-1.266 4.235-4.117 4.235m53.54-78.273h-1.683c-4.35 0-7.048 2.946-7.048 7.691v66.438c0 4.66 2.575 7.33 7.066 7.33h1.684c4.565 0 7.188-2.67 7.188-7.33V9.533c0-4.745-2.759-7.691-7.201-7.691m4.344 7.691v66.438c0 3.1-1.339 4.482-4.338 4.482h-1.683c-2.912 0-4.215-1.382-4.215-4.482V9.533c0-2.21.731-4.843 4.196-4.843h1.684c3.594 0 4.35 2.633 4.35 4.843M72.458 71.945l-1.733-4.377L46.628 5.924C45.239 2.284 42.173.657 36.687.657s-8.442 1.627-9.825 5.26L2.98 67.538 1.094 72.3c-.13.326-.246.657-.363 1.05-1.186 3.997.289 7.146 4.05 8.631l.601.24c1.66.656 3.232.785 4.682.38 1.72-.485 3.115-1.676 4.147-3.542.24-.43.443-.86.62-1.313l2.133-5.372h.068l4.915-12.756h29.246l2.58 6.642-.03.012 4.516 11.388c1.603 3.977 4.178 5.015 6.052 5.18q.295.03.608.031c.99 0 2.034-.215 3.103-.638l.626-.252c3.994-1.578 5.493-4.93 4.123-9.195-.092-.283-.19-.565-.3-.835M53.14 56.764H19.98L15.065 69.52h-.049l-2.844 7.17a9 9 0 0 1-.467.988c-.646 1.172-1.457 1.903-2.421 2.173-.83.233-1.788.135-2.857-.282l-.602-.24c-2.384-.945-3.134-2.584-2.366-5.175a10 10 0 0 1 .277-.81l1.892-4.776L29.523 6.937c.805-2.118 2.285-3.432 7.164-3.432 5.51 0 6.617 1.7 7.28 3.444L68.071 68.61l1.739 4.383q.13.324.233.657c.916 2.848.135 4.653-2.458 5.678l-.626.252c-.873.344-1.684.485-2.403.417-1.96-.178-3.072-1.952-3.661-3.407l-2.188-5.512-.166-.387-1.112-2.83h.012L53.136 56.77zm-31.243-7.14h29.32L36.63 11.221 21.904 49.624zm4.147-2.848 10.574-27.562 10.47 27.562zm90.024-45.02H93.901c-4.817 0-8.049 3.376-8.049 8.403v65.002c0 .491.025.97.08 1.455.442 4.033 2.82 6.347 6.525 6.347h1.69c4.227 0 6.844-2.713 6.844-7.084V52.068h11.815l19.612 27.752c1.493 2.112 3.324 3.23 5.291 3.23 1.284 0 2.605-.473 3.919-1.4l1.309-.921c1.733-1.222 2.747-2.67 3.011-4.31.264-1.632-.228-3.351-1.475-5.107l-15.336-21.7c9.702-2.615 15.613-8.907 17.13-18.238a30.4 30.4 0 0 0 .381-4.837c0-16.212-10.574-24.775-30.579-24.775m10.408 45.554-2.138.436 17.812 25.2c1.579 2.234 1.315 3.916-.86 5.444l-1.309.921c-1.045.737-1.948 1.007-2.771.835-.842-.178-1.647-.829-2.464-1.983l-20.466-28.956h-16.14v26.66c0 2.806-1.346 4.23-3.994 4.23h-1.69c-2.236 0-3.41-1.21-3.693-3.806a10 10 0 0 1-.061-1.148v-64.99c0-3.425 1.99-5.555 5.198-5.555h22.168c9.167 0 16.177 1.878 20.829 5.586 4.583 3.646 6.906 9.147 6.906 16.341 0 1.504-.117 2.977-.345 4.383-1.419 8.741-7.286 14.414-16.982 16.402m-11.01-35.327h-17.45v30.294h17.812c11.877 0 16.092-5.427 17.536-9.982.503-1.596.762-3.333.762-5.162 0-6.912-3.238-15.144-18.654-15.144m15.796 15.138c0 1.54-.208 2.99-.626 4.303-1.653 5.23-6.777 7.992-14.814 7.992h-14.961V14.837h14.599c10.482 0 15.802 4.137 15.802 12.296m168.073 7.458-1.536-.356c-10.095-2.333-15.649-3.616-15.649-10.472 0-6.262 5.702-10.307 14.537-10.307 5.303 0 10.537 1.73 14.746 4.886l.062.043c6.131 3.966 9.634.675 10.555-.423 3.097-3.684 1.487-6.986.479-8.423l.056-.061-1.075-1.111C316.441 3.125 307.115 0 296.559 0c-17.474 0-29.682 9.97-29.682 24.235 0 16.961 13.326 21.449 25.824 24.315l.282.068c10.052 2.332 17.99 4.18 17.99 11.608 0 6.703-5.603 10.546-15.379 10.546-6.998 0-13.584-2.505-18.549-7.066l-.061-.049q-.376-.295-.78-.564c-3.312-2.173-6.734-1.824-9.149.92-1.573 1.787-2.151 3.757-1.72 5.85.608 2.953 3.139 5.083 3.637 5.47 5.646 5.562 15.649 8.889 26.745 8.889 19.053 0 30.887-9.515 30.887-24.837 0-16.396-13.788-21.737-27.268-24.8m-20.03-10.822c0 9.122 7.883 10.945 17.861 13.247l1.536.356c12.387 2.811 25.056 7.63 25.056 22.019 0 13.566-10.74 21.988-28.036 21.988-10.42 0-19.698-3.038-24.81-8.133l-.233-.19c-.436-.363-2.15-1.873-2.538-3.757-.245-1.21.093-2.284 1.069-3.395 1.475-1.676 3.312-1.817 5.45-.417.191.122.375.251.51.362 5.475 5.021 12.737 7.783 20.442 7.783 11.582 0 18.229-4.88 18.229-13.394 0-9.687-9.806-11.97-20.195-14.383l-.283-.067c-11.422-2.628-23.612-6.673-23.612-21.54 0-12.597 11.029-21.388 26.832-21.388 9.726 0 18.26 2.775 22.819 7.41l.184.19q.361.38.621.694c1.192 1.639 1.087 3.315-.313 4.978-.547.65-2.649 2.56-6.765-.092-4.682-3.499-10.513-5.426-16.417-5.426-10.562 0-17.388 5.162-17.388 13.155M3.478 293.002v-68.955c0-4.383 2.881-7.133 7.391-7.133h3.38c5.007 0 6.39 1.878 8.392 6.507l19.164 43.173 19.286-43.173c2.003-4.758 3.508-6.507 8.264-6.507h3.133c4.633 0 7.644 2.75 7.644 7.133v68.955c0 3.88-1.628 5.881-5.389 5.881h-1.75c-3.632 0-5.137-2.001-5.137-5.881v-59.44l-17.91 40.294c-1.377 3.253-2.753 5.506-8.264 5.506-5.512 0-6.765-2.253-8.264-5.506l-17.658-39.92v59.066c0 3.88-1.506 5.881-5.26 5.881H8.497c-3.508 0-5.007-2.001-5.007-5.881zm96.1-27.532v-42.675c0-3.88 2.003-5.881 5.511-5.881h1.751c3.761 0 5.635 2.001 5.635 5.881v42.295c0 15.389 6.764 23.4 20.165 23.4s20.165-7.759 20.165-23.523v-42.172c0-4.003 1.88-5.881 5.511-5.881h2.003c3.631 0 5.388 1.878 5.388 5.881v42.424c0 22.528-11.649 34.664-33.19 34.664-21.542 0-32.939-11.89-32.939-34.413m79.917 18.398c0-4.254 5.511-7.385 5.886-6.882 4.633 6.759 13.277 12.388 24.423 12.388s17.658-4.628 17.658-12.639c0-9.135-9.517-11.265-20.288-13.769-12.528-2.879-25.553-7.256-25.553-23.652 0-13.769 11.901-23.53 29.184-23.53s27.809 8.509 27.809 14.389c0 4.629-5.764 7.508-6.015 7.133-4.258-6.132-12.276-10.883-21.671-10.883-10.144 0-16.786 4.88-16.786 12.387 0 8.883 7.89 10.264 19.164 12.891 13.775 3.131 27.053 8.509 27.053 24.15S228.832 300 209.921 300s-30.438-9.509-30.438-16.145zm76.746 7.384v-66.573c0-4.383 2.753-7.256 6.888-7.256h46.972c4.006 0 6.015 2.002 6.015 5.384v.749c0 3.505-2.003 5.383-6.015 5.383h-40.957v22.652h31.691c4.135 0 6.015 1.749 6.015 5.132v.374c0 3.505-2.002 5.384-6.015 5.384h-31.691v24.53h41.706c4.006 0 5.886 1.749 5.886 5.132v.626c0 3.628-1.88 5.629-5.886 5.629h-47.721c-4.135 0-6.888-2.75-6.888-7.133zm72.993-25.782v-42.675c0-3.88 2.003-5.881 5.511-5.881h1.751c3.76 0 5.634 2.001 5.634 5.881v42.295c0 15.389 6.765 23.4 20.165 23.4 13.401 0 20.165-7.759 20.165-23.523v-42.172c0-4.003 1.88-5.881 5.512-5.881h2.003c3.631 0 5.388 1.878 5.388 5.881v42.424c0 22.528-11.649 34.664-33.191 34.664-21.541 0-32.938-11.89-32.938-34.413m85.643 27.532v-68.955c0-4.383 2.881-7.133 7.391-7.133h3.379c5.008 0 6.39 1.878 8.393 6.507l19.164 43.173 19.286-43.173c2.003-4.758 3.509-6.507 8.264-6.507h3.134c4.632 0 7.643 2.75 7.643 7.133v68.955c0 3.88-1.628 5.881-5.388 5.881h-1.752c-3.631 0-5.136-2.001-5.136-5.881v-59.44l-17.91 40.294c-1.376 3.253-2.759 5.506-8.264 5.506s-6.765-2.253-8.264-5.506l-17.658-39.92v59.066c0 3.88-1.505 5.881-5.26 5.881h-2.003c-3.508 0-5.007-2.001-5.007-5.881zM38.327 192.12C14.906 192.12 0 174.478 0 150.322c0-24.155 17.032-42.301 41.584-42.301 19.667 0 30.69 10.509 30.69 16.771 0 5.881-6.636 7.133-7.017 6.629-5.008-8.01-14.402-12.264-23.422-12.264-16.785 0-28.557 12.762-28.557 31.282s10.395 31.282 27.556 31.282c13.025 0 22.672-7.384 24.3-18.023v-5.254h-19.04c-4.382 0-6.514-1.375-6.514-4.881v-.626c0-3.628 2.133-5.009 6.513-5.009h23.55c4.633 0 6.888 2.879 6.888 7.385v34.542c0 .374-1.88 1.252-4.258 1.252-3.76 0-7.016-1.878-7.016-10.386v-1.504c-5.008 8.011-14.402 12.891-26.93 12.891zm116.407-6.255c.627.749-2.132 5.254-7.514 5.254-3.38 0-5.635-1.375-8.393-5.009l-22.168-27.157h-8.891v26.28c0 3.505-1.88 5.88-5.634 5.88h-1.751c-3.508 0-5.388-2.375-5.388-6.629V116.91c0-4.383 2.752-7.256 6.887-7.256h23.047c19.79 0 30.309 8.256 30.309 24.278 0 13.769-8.393 22.529-24.171 23.775l23.673 28.158zm-30.063-37.041c11.901 0 17.535-5.506 17.535-14.266 0-9.386-6.015-14.266-17.91-14.266h-16.657v28.532zm229.551-27.654c-3.883 0-6.015-2.001-6.015-5.506v-.626c0-3.506 2.132-5.384 6.015-5.384h57.368c3.883 0 5.886 1.878 5.886 5.384v.626c0 3.505-2.003 5.506-5.886 5.506h-22.168v64.075c0 3.879-2.003 5.881-5.764 5.881h-1.751c-3.631 0-5.511-2.002-5.511-5.881V121.17zm75.757 62.319v-66.573c0-4.383 2.753-7.256 6.888-7.256h46.971c4.006 0 6.016 2.001 6.016 5.384v.749c0 3.505-2.003 5.383-6.016 5.383h-40.956v22.652h31.691c4.135 0 6.015 1.749 6.015 5.131v.375c0 3.505-2.003 5.384-6.015 5.384h-31.691v24.529h41.706c4.006 0 5.886 1.75 5.886 5.132v.626c0 3.628-1.88 5.63-5.886 5.63h-47.721c-4.135 0-6.888-2.751-6.888-7.134zm-86.608-33.099c0 23.271-18.93 42.203-42.204 42.203s-34.813-14.923-45.141-30.589v.006c-5.069-7.661-3.496-5.598-7.379-11.602h-.012s0-.012.012-.012c-10.285-16.274-19.852-29.711-37.762-29.711-16.38 0-29.701 13.327-29.701 29.711s13.327 29.711 29.701 29.711c13.044 0 21.658-7.146 29.351-17.311l7.065 11.086c-8.896 10.565-20.085 18.711-36.422 18.711-23.274 0-42.204-18.932-42.204-42.203s18.93-42.203 42.204-42.203 34.813 14.923 45.147 30.589c5.069 7.667 3.502 5.604 7.385 11.614 10.286 16.273 19.852 29.711 37.762 29.711 16.381 0 29.701-13.327 29.701-29.711s-13.32-29.711-29.701-29.711c-13.05 0-21.664 7.145-29.356 17.311l-7.066-11.087c8.897-10.57 20.085-18.716 36.422-18.716 23.274 0 42.204 18.931 42.204 42.203z" fill="currentColor"></path></svg>