<svg width="100%" height="100%" viewBox="0 0 332 85" fill="none" xmlns="http://www.w3.org/2000/svg"><path d="M304.902 35.426v.008C318.304 38.48 332 43.754 332 59.806c0 15.044-11.705 24.387-30.554 24.387-11.132 0-21.102-3.3-26.68-8.84l-.038-.022c-.465-.372-2.797-2.332-3.347-4.997-.372-1.805.139-3.51 1.518-5.074 2.905-3.3 6.252-1.89 7.98-.752.255.163.495.341.72.52 5.291 4.864 12.286 7.53 19.723 7.53 10.691 0 16.819-4.331 16.819-11.885 0-8.467-8.924-10.543-19.251-12.945l-.294-.07c-12.388-2.85-25.612-7.281-25.612-23.883C272.984 9.777 285.039 0 302.306 0c10.521 0 19.786 3.083 24.783 8.25l.333.357c.201.217.379.426.542.627 1.03 1.402 2.324 4.2-.372 7.414-3.192 3.796-8.01 1.131-9.412.225-4.501-3.378-10.087-5.23-15.75-5.23-9.691 0-15.958 4.563-15.958 11.636 0 7.884 6.705 9.435 16.848 11.781z" fill="currentColor"></path><path fill-rule="evenodd" clip-rule="evenodd" d="m70.017 68.567 1.781 4.494.016-.008q.15.406.279.79c1.224 3.82-.047 6.701-3.595 8.103l-.643.256c-.968.38-1.898.573-2.78.573q-.27 0-.528-.023c-2.324-.21-4.16-1.82-5.298-4.648l-4.23-10.668h.023l-3.293-8.49H20.33l-5.036 13.069h-.062l-2.448 6.182c-.17.418-.357.821-.581 1.224-.907 1.65-2.115 2.696-3.595 3.114-1.247.356-2.626.232-4.106-.349l-.62-.24C.559 80.63-.688 77.95.366 74.401c.093-.325.201-.65.333-.984l1.936-4.88L27.091 5.369c.93-2.44 2.572-4.703 9.064-4.703s8.25 2.262 9.18 4.71zm-46.311-20.63h24.658L36.094 15.61z" fill="currentColor"></path><path d="M163.188 1.79c-4.067 0-6.306 2.022-6.306 5.694v.62c0 3.695 2.301 5.817 6.306 5.817h18.856v62.78c0 4.045 2.014 6.19 5.818 6.19h1.727c3.913 0 6.066-2.2 6.066-6.19v-62.78h19.096c3.99 0 6.182-2.068 6.182-5.818v-.62c0-3.671-2.2-5.693-6.182-5.693zm81.226.092h-1.727c-3.85 0-6.143 2.55-6.143 6.81v68.102c0 4.153 2.192 6.438 6.158 6.438h1.728c4.051 0 6.283-2.285 6.283-6.437V8.692c0-4.269-2.356-6.81-6.299-6.81" fill="currentColor"></path><path fill-rule="evenodd" clip-rule="evenodd" d="M117.451 1.79H94.753c-4.292 0-7.174 3.029-7.174 7.545v66.623c0 .465.023.914.078 1.38.387 3.578 2.386 5.546 5.616 5.546h1.728c3.718 0 5.941-2.317 5.941-6.19v-25.48h13.728l20.405 28.897c1.348 1.905 2.874 2.866 4.532 2.866 1.085 0 2.231-.41 3.401-1.24l1.34-.945c1.526-1.077 2.409-2.324 2.634-3.71.225-1.395-.217-2.89-1.317-4.447l-16.617-23.528c10.396-2.308 16.71-8.59 18.267-18.197.248-1.534.372-3.145.372-4.788 0-15.911-10.458-24.325-30.244-24.325zm16.64 24.945c0 1.688-.232 3.284-.689 4.733-1.852 5.849-7.453 8.94-16.191 8.94h-16.393V13.054h16.021c11.45 0 17.252 4.601 17.252 13.68" fill="currentColor"></path></svg>