<svg width="100%" height="100%" viewBox="0 0 332 195" fill="none" xmlns="http://www.w3.org/2000/svg"><path fill-rule="evenodd" clip-rule="evenodd" d="M300.442 72.075c-7.118-.002-13.818-2.552-18.868-7.196l-.062-.05q-.383-.301-.794-.575c-3.37-2.213-6.852-1.857-9.309.938-1.6 1.82-2.188 3.826-1.75 5.958.619 3.007 3.194 5.176 3.701 5.57 5.745 5.664 15.923 9.052 27.213 9.052 19.386 0 31.427-9.69 31.427-25.294 0-16.698-14.029-22.137-27.751-25.256l-1.563-.363h-.002c-10.27-2.376-15.921-3.683-15.921-10.665 0-6.377 5.802-10.497 14.792-10.497 5.395 0 10.721 1.763 15.003 4.977l.063.043c6.239 4.039 9.803.688 10.74-.431 3.151-3.751 1.513-7.114.488-8.577l-1.038-1.188C321.647 3.182 312.157 0 301.417 0c-17.78 0-30.202 10.153-30.202 24.681 0 17.274 13.56 21.844 26.276 24.763l.288.069c10.227 2.376 18.304 4.257 18.304 11.822 0 6.825-5.699 10.738-15.641 10.74m18.548-10.747c0-9.865-9.977-12.19-20.549-14.647l-.287-.069c-11.622-2.676-24.025-6.795-24.025-21.937 0-12.828 11.221-21.78 27.301-21.78 9.896 0 18.579 2.825 23.218 7.545l.188.194c.243.256.456.494.631.706 1.213 1.67 1.107 3.376-.319 5.07-.556.663-2.694 2.607-6.883-.093-4.764-3.564-10.696-5.527-16.704-5.527-10.747 0-17.692 5.258-17.692 13.398 0 9.29 8.021 11.146 18.173 13.49l1.563.363c12.61 2.863 25.494 7.77 25.494 22.425 0 13.816-10.928 22.393-28.526 22.393-10.603 0-20.043-3.095-25.244-8.283l-.238-.194c-.443-.37-2.188-1.907-2.581-3.826-.251-1.232.093-2.326 1.087-3.457 1.501-1.707 3.37-1.85 5.546-.425.193.125.381.256.518.368 5.571 5.114 12.96 7.927 20.8 7.927 11.784 0 18.548-4.97 18.548-13.64zM36.936 11.416l-14.985 39.11h29.833l-14.842-39.11zm-.013 8.14 10.653 28.069H26.165z" fill="currentColor"></path><path fill-rule="evenodd" clip-rule="evenodd" d="m5.14 83.716-.613-.244v.006c-3.826-1.513-5.326-4.72-4.12-8.79.12-.4.238-.737.37-1.069l1.919-4.851 24.3-62.754c1.406-3.7 4.414-5.358 9.996-5.358s8.702 1.657 10.115 5.364L71.64 68.8l1.763 4.457c.112.275.212.562.306.85 1.394 4.345-.131 7.758-4.195 9.365l-.638.256c-1.087.431-2.15.65-3.157.65a7 7 0 0 1-.619-.031c-1.906-.169-4.526-1.225-6.157-5.276l-4.595-11.597.03-.013-2.625-6.764H21.994l-5 12.99h-.07l-2.169 5.471c-.181.463-.388.9-.631 1.338-1.05 1.9-2.47 3.113-4.22 3.607-1.476.413-3.076.281-4.764-.387m-1.669-9.034c-.1.25-.188.513-.281.825v.006c-.782 2.639-.02 4.308 2.407 5.27l.612.244c1.088.425 2.063.525 2.907.288.982-.275 1.807-1.02 2.463-2.213.182-.332.338-.663.475-1.007l2.895-7.302h.044l5.001-12.99h33.734l4.382 11.296h-.012l1.131 2.882.169.394 2.225 5.614c.6 1.482 1.732 3.288 3.727 3.47.731.068 1.556-.075 2.444-.425l.638-.257c2.638-1.044 3.432-2.882 2.5-5.782a9 9 0 0 0-.237-.67l-1.77-4.463L44.4 7.064c-.675-1.775-1.8-3.507-7.408-3.507-4.964 0-6.47 1.338-7.29 3.495L5.397 69.818zm177.402-58.728h-17.66c-4.527 0-7.334-2.626-7.334-6.845v-.613c0-4.207 2.739-6.72 7.334-6.72h51.219c4.582 0 7.208 2.45 7.208 6.72v.613c0 4.288-2.694 6.845-7.208 6.845h-17.905v61.31c0 4.582-2.582 7.214-7.089 7.214h-1.719c-4.351 0-6.846-2.632-6.846-7.214zM163.206 4.676c-3.026 0-4.432 1.213-4.432 3.82h-.006v.613c0 2.657 1.45 3.944 4.432 3.944h20.568v64.21c0 2.983 1.219 4.314 3.945 4.314h1.719c2.901 0 4.188-1.331 4.188-4.313v-64.21h20.806c2.938 0 4.307-1.25 4.307-3.945v-.613c0-2.638-1.325-3.82-4.307-3.82zm80.715 80.146h-1.707c-4.57 0-7.189-2.72-7.189-7.465V9.698c0-4.833 2.744-7.834 7.17-7.834h1.713c4.52 0 7.327 3 7.327 7.833v67.661c0 4.746-2.669 7.465-7.314 7.465m-1.732-80.058c-3.526 0-4.27 2.682-4.27 4.932h-.006v67.661c0 3.158 1.325 4.564 4.289 4.564h1.713c3.05 0 4.413-1.406 4.413-4.564V9.698c0-2.251-.769-4.933-4.426-4.933zM135.361 32.877c.513-1.625.776-3.394.776-5.257 0-7.04-3.295-15.423-18.98-15.423H99.402v30.852h18.124c12.084 0 16.373-5.527 17.842-10.166zm-33.058-17.78h14.847c10.666 0 16.08 4.214 16.08 12.523 0 1.569-.213 3.044-.638 4.382-1.682 5.326-6.896 8.14-15.073 8.14h-15.216z" fill="currentColor"></path><path fill-rule="evenodd" clip-rule="evenodd" d="M102.422 53.014V77.27c0 4.451-2.663 7.215-6.965 7.215h-1.719c-3.77 0-6.189-2.357-6.64-6.465a13 13 0 0 1-.08-1.481V10.34c0-5.12 3.288-8.558 8.19-8.558h22.555c20.355 0 31.114 8.72 31.114 25.231 0 1.682-.131 3.339-.387 4.927-1.544 9.502-7.558 15.91-17.43 18.573l15.604 22.1c1.269 1.788 1.77 3.538 1.501 5.201-.269 1.67-1.301 3.145-3.064 4.389l-1.331.937c-1.338.944-2.682 1.426-3.989 1.426-2 0-3.863-1.138-5.382-3.289l-19.955-28.263zM95.457 81.57c2.695 0 4.064-1.45 4.064-4.307l.006-.006v-27.15h16.423l20.824 29.489c.832 1.175 1.651 1.838 2.507 2.019.838.175 1.757-.1 2.82-.85l1.331-.938c2.213-1.557 2.482-3.27.876-5.545l-18.124-25.663 2.176-.444c9.865-2.025 15.835-7.802 17.279-16.704.231-1.432.35-2.932.35-4.464 0-7.327-2.363-12.928-7.027-16.642-4.732-3.776-11.865-5.689-21.193-5.689H95.213c-3.27 0-5.295 2.17-5.295 5.658v66.192c0 .394.02.775.063 1.17.288 2.644 1.482 3.875 3.757 3.875zm39.842 102.922-1.807-4.558-25.037-64.104c-.944-2.482-2.726-4.776-9.315-4.776-6.483 0-8.252 2.294-9.196 4.776L65.13 179.909l-1.963 4.951a12 12 0 0 0-.344 1.001c-1.07 3.601.194 6.32 3.563 7.652l.626.25c1.5.594 2.9.712 4.163.356 1.5-.419 2.726-1.482 3.645-3.163.225-.407.419-.813.588-1.244l2.481-6.271h.063l5.108-13.259h31.876l3.339 8.614h-.025l4.288 10.828c1.157 2.87 3.014 4.501 5.377 4.714q.261.027.531.025c.894 0 1.838-.194 2.82-.581l.656-.257c3.595-1.425 4.889-4.345 3.645-8.221a16 16 0 0 0-.288-.8zm-23.781-25.482H86.505l12.566-32.796zm70.462-47.275h-23.131c-4.37 0-7.308 3.089-7.308 7.684v67.88c0 .468.025.931.075 1.4.393 3.645 2.432 5.651 5.72 5.651h1.763c3.788 0 6.051-2.356 6.051-6.301v-25.963h13.985l20.793 29.445c1.369 1.938 2.932 2.919 4.62 2.919 1.107 0 2.269-.418 3.47-1.269l1.369-.962c1.55-1.094 2.457-2.37 2.688-3.783.231-1.419-.219-2.944-1.344-4.532l-16.929-23.975c10.596-2.351 17.023-8.752 18.611-18.542.256-1.569.381-3.207.381-4.883 0-16.21-10.659-24.781-30.814-24.781zm16.954 25.407c0 1.725-.237 3.344-.706 4.826-1.888 5.958-7.59 9.109-16.498 9.109h-16.698v-27.87h16.323c11.665 0 17.579 4.689 17.579 13.935M8.747 194.369c3.808 0 5.708-2.407 5.708-5.958l-.006.007v-24.094h14.585c21.18 0 32.34-9.128 32.34-26.376 0-16.867-11.535-26.125-31.827-26.125H7.822c-4.188 0-6.977 2.913-6.977 7.352v69.236c0 3.926 1.9 5.958 5.452 5.958zm39.573-56.171c0 10.147-6.47 15.211-19.023 15.211h-14.96v-30.227h15.09c12.429 0 18.893 4.745 18.893 15.016" fill="currentColor"></path><path d="m260.944 153.127 29.858-29.858c2.763-2.763 2.813-5.576.05-8.339l-1.244-1.244c-2.582-2.582-5.389-2.532-8.152.231l-35.453 35.453v-31.652c0-3.914-1.957-5.933-5.864-5.933h-2.151c-3.645 0-5.601 2.019-5.601 5.933v70.781c0 3.913 1.956 5.933 5.601 5.933h2.151c3.907 0 5.864-2.02 5.864-5.933v-31.602l35.428 35.428c2.763 2.763 5.576 2.813 8.339.05l1.244-1.244c2.582-2.582 2.532-5.389-.231-8.152l-29.839-29.839z" fill="currentColor"></path></svg>