<svg width="61" height="31" viewBox="0 0 61 31" fill="none" xmlns="http://www.w3.org/2000/svg"><path d="M.944 31V8.4C.946 4.396 3.78.964 7.744.164A8.399 8.399 0 0 1 9.405.002c11.942 0 23.885-.006 35.827.003 7.256.006 13.607 5.061 15.188 12.06 1.745 7.729-2.577 15.459-10.106 18.07-1.67.58-3.392.864-5.16.865H.943Zm.574-.562h.295c14.448 0 28.896 0 43.344-.002 1.217 0 2.42-.141 3.601-.432 7.722-1.9 12.856-9.475 11.151-17.592C58.463 5.525 52.304.578 45.201.572 33.275.565 21.349.57 9.424.576c-.467 0-.939.038-1.4.117-3.733.644-6.503 3.91-6.505 7.67-.003 7.266 0 14.532 0 21.798v.28-.002Zm54.977-16.05c-.026-.051-.05-.105-.08-.155-.77-1.324-1.542-2.647-2.314-3.971-1.138-1.954-2.28-3.907-3.416-5.863-.08-.137-.166-.205-.341-.204-3.897.006-7.795.005-11.692.001-.161 0-.261.05-.325.19-.02.043-.047.084-.072.126l-5.701 9.766c-.02.035-.032.074-.048.112.16-.09.292-.193.422-.3 3.482-2.844 7.257-5.238 11.3-7.224a.545.545 0 0 1 .547 0c.763.404 1.537.784 2.296 1.194a57.318 57.318 0 0 1 8.458 5.592c.313.25.626.503.938.755a.187.187 0 0 0 .029-.02v.002Zm-.056.43-.754.326-7.687 3.313c-1.066.46-2.134.916-3.197 1.383a.668.668 0 0 1-.6 0c-.292-.138-.592-.258-.888-.385-3.458-1.49-6.916-2.983-10.374-4.474-.13-.056-.26-.11-.39-.163l-.014.026 11.952 12.034c.086-.08.15-.137.212-.198 1.617-1.634 3.23-3.273 4.852-4.901 2.26-2.269 4.525-4.53 6.789-6.794l.131-.134-.032-.034ZM20.89 8.25c.09.04.154.07.22.098.894.378 1.375 1.165 1.295 2.2-.062.8-.487 1.352-1.204 1.699-.517.25-1.072.346-1.64.382-.274.018-.549.014-.824.014h-4.115c-.054-.197-.06-8.195-.007-8.439.074-.004.153-.01.23-.011 1.335 0 2.668-.004 4.002.001.527.002 1.051.051 1.55.228.227.08.452.179.657.303 1.303.79 1.151 2.57.14 3.312-.09.066-.183.128-.303.211v.002Zm-4.309.847c-.048.273-.039 1.88.01 2.058.014.005.029.015.044.015.887-.007 1.775-.003 2.662-.03.225-.008.455-.101.667-.191.233-.1.37-.3.428-.549.13-.57-.118-1.03-.686-1.192a3.38 3.38 0 0 0-.835-.115c-.685-.016-1.371-.006-2.058-.005-.079 0-.157.007-.232.011v-.002Zm-.018-1.46c.055.007.094.016.133.016.661 0 1.323.01 1.984-.007a2.44 2.44 0 0 0 .708-.13c.408-.137.608-.446.607-.857 0-.415-.197-.715-.616-.848a3.001 3.001 0 0 0-.805-.132c-.605-.019-1.21-.006-1.816-.005-.061 0-.124.01-.196.014v1.95h.001ZM41.42 11.75c-.912 1.652-.306 3.73 1.35 4.662a3.54 3.54 0 0 0 4.754-1.255c.877-1.458.413-3.263-.364-3.942.057.404-.006.765-.25 1.082a1.332 1.332 0 0 1-.972.524c-.687.062-1.314-.441-1.427-1.135-.116-.711.344-1.307 1.178-1.523-1.205-.524-3.274-.217-4.27 1.587h.001ZM13.144 5.487c-.03-.037-.064-.072-.096-.108a3.88 3.88 0 0 0-1.272-.904c-.966-.428-1.974-.512-3.01-.347C6.7 4.458 4.992 6.12 5.058 8.51c.05 1.821.929 3.127 2.603 3.884.972.44 1.998.489 3.04.306.9-.157 1.681-.547 2.315-1.21.06-.061.113-.13.18-.21l-1.256-1.148c-1.272 1.445-3.265 1.113-4.128.233-.97-.99-1.01-2.741-.086-3.798.822-.937 2.9-1.351 4.22.129l1.24-1.134c-.02-.035-.028-.058-.043-.076Zm16.74 2.507h-2.936c-.328 0-.656-.003-.98-.005v-2.22h2.682c.291 0 .581.002.873 0 .294-.002.59.01.879-.007.046-.494.028-1.39-.028-1.553-.529-.046-6.21-.024-6.389.025v8.396h1.963c0-.517-.003-1.02 0-1.52.004-.509-.018-1.016.015-1.542h3.919V7.994h.002Zm-.276 8.723V14.83c.294-.024.578-.008.88-.01v5.23h-.83c-.004-.078-.009-.141-.01-.204-.003-.063 0-.126 0-.22-.055.032-.09.046-.116.07-.37.34-.817.442-1.3.407-1.268-.09-1.908-1.115-1.758-2.241.173-1.288 1.359-1.812 2.383-1.56.206.05.39.183.582.282.046.024.085.065.169.131v.002Zm.01 1.453c0-.783-.621-1.306-1.372-1.153-.5.1-.845.507-.88 1.038-.04.594.231 1.055.723 1.227.727.253 1.543-.2 1.529-1.112ZM5.244 20.048h3.72v-.754c-.936-.012-1.86.004-2.785-.009v-1.36h.812c.26 0 .517.002.776 0 .263-.002.526.009.785-.008v-.755H6.175V15.89h1.801c.296-.002.59.008.883-.006v-.757H5.243v4.922l.001-.002Zm11.707-.04-1.7-2.138.403-.402.377-.373c.132-.13.265-.259.392-.394.12-.129.277-.23.369-.415-.277 0-.527.009-.777-.003a.538.538 0 0 0-.43.162c-.478.453-.968.896-1.456 1.34-.054.048-.092.135-.21.11v-3.059h-.871c-.05.343-.034 5.044.017 5.214h.85c.003-.093.01-.171.01-.25.002-.2-.004-.4.003-.6.004-.065.02-.15.062-.193.185-.189.383-.364.587-.554.065.074.118.132.168.193.346.423.689.848 1.039 1.268.052.063.132.141.203.145.311.016.625.007.937.007l.027-.056v-.002Zm4.15-1.551h-2.953c.016.078.021.139.043.195.133.35.4.56.754.65.497.125.962.056 1.368-.277a.622.622 0 0 1 .058-.043c.006-.005.017-.003.049-.008.142.162.295.333.453.51a1.362 1.362 0 0 1-.667.476 2.486 2.486 0 0 1-1.866-.05c-.79-.34-1.215-1.156-1.088-2.028.167-1.142 1.148-1.75 2.218-1.625 1.122.13 1.736 1.032 1.656 2.08-.002.03-.012.06-.024.12H21.1Zm-.847-.602c-.034-.538-.488-.911-1.082-.9-.552.012-.997.401-1.014.9h2.096Zm2.487 1.887c.003-.584-.016-1.17.015-1.75.039-.709.596-1.098 1.299-.946.305.066.506.247.589.54.041.144.055.299.057.45.006.583.003 1.167.003 1.75v.265h.895v-2.098a3.07 3.07 0 0 0-.025-.43c-.088-.611-.412-1.043-1.026-1.203-.633-.167-1.233-.096-1.753.345-.017.014-.039.021-.077.041l-.032-.416c-.289-.001-.559-.008-.83.004v3.758h.885v-.31Zm-11.922.315v-.845c.001-.384-.01-.768.01-1.15.03-.61.433-.982 1.05-.997.078-.002.156 0 .24 0v-.816c-.516-.01-.96.118-1.332.531-.01-.189-.015-.328-.022-.48h-.836v3.757c.292.015.58.013.89 0Zm9.15 6.83v-3.434c.058-.005.105-.013.151-.013.444 0 .89-.008 1.333.005a2.4 2.4 0 0 1 .572.09c.787.224 1.26.904 1.214 1.724-.047.825-.607 1.453-1.425 1.585-.182.029-.37.038-.555.041-.42.006-.84.002-1.29.002Zm.394-3.122c-.051.316-.04 2.62.01 2.79.402 0 .806.025 1.207-.005.723-.052 1.246-.582 1.285-1.264.043-.767-.37-1.33-1.115-1.482-.202-.04-.417-.034-.626-.038-.256-.006-.512-.001-.762-.001h.001Zm-3.08.919v-1.427h.33v3.619c-.055.004-.101.011-.148.011-.047 0-.094-.006-.163-.011l-.026-.443c-.32.382-.707.514-1.16.466a1.228 1.228 0 0 1-.803-.4c-.448-.491-.442-1.346.011-1.826.265-.28.6-.397.98-.394.372.003.69.137.93.439l.047-.033.001-.001Zm-1.939.91c0 .581.411 1.005.972 1.005.559 0 .966-.426.965-1.01 0-.587-.402-1-.97-1-.567 0-.967.417-.966 1.004Zm-7.375.543c.006.152-.054.232-.187.294a1.76 1.76 0 0 1-.655.155c-1.035.059-1.788-.87-1.49-1.847.313-1.03 1.57-1.237 2.284-.748l.202.141.206-.217c-.137-.17-.3-.269-.48-.346a2 2 0 0 0-1.162-.124c-.713.127-1.213.526-1.406 1.226-.195.706-.027 1.334.54 1.826.657.57 1.74.514 2.357.096a.295.295 0 0 0 .142-.279c-.008-.327-.002-.656-.004-.983 0-.053-.015-.105-.022-.157h-.327c0 .341-.008.652.004.963H7.97Zm19.197-.439c.032.365.19.623.493.771.477.233.923.157 1.332-.2l.19.21c-.207.263-.482.376-.792.414a1.964 1.964 0 0 1-.435 0c-.622-.061-1.08-.534-1.146-1.174-.066-.637.292-1.22.879-1.382 1.093-.303 1.763.593 1.635 1.361h-2.157.001Zm.026-.262c.597 0 1.194.002 1.792 0-.034-.535-.409-.862-.939-.85-.48.012-.852.368-.854.85h.001Zm-13.004.83.189.216c-.212.26-.486.378-.8.412a2.094 2.094 0 0 1-.434 0c-.622-.064-1.084-.546-1.14-1.18-.058-.644.3-1.215.888-1.377 1.01-.277 1.726.489 1.64 1.354-.232.02-.472.006-.71.008-.234.002-.468 0-.703 0h-.75c.018.36.178.614.476.765.475.24.92.17 1.346-.197h-.002Zm-.019-.845c.007-.484-.384-.84-.902-.835-.5.004-.888.37-.873.835h1.776Zm-3.931 1.484c-.77.002-1.334-.55-1.338-1.309-.004-.755.56-1.315 1.33-1.319.775-.004 1.33.543 1.33 1.311.002.77-.544 1.315-1.321 1.317h-.001Zm-.97-1.324c-.002.47.244.84.645.968.464.148.95-.035 1.164-.44.237-.446.128-1.05-.248-1.328a.882.882 0 0 0-.253-.135c-.695-.225-1.32.231-1.308.935Zm17.094.022c-.003.77-.554 1.307-1.334 1.303-.769-.004-1.331-.566-1.324-1.323.007-.759.575-1.31 1.344-1.305.777.005 1.317.55 1.314 1.325Zm-1.331-1.013c-.57.003-.963.416-.96 1.008.001.586.41 1.005.973 1.002.561-.004.967-.431.963-1.015-.004-.589-.405-.998-.977-.995h.001Zm5.26-1.34c-.063-.004-.11-.011-.158-.01-.054.002-.108.01-.17.018v3.615h.328v-3.622Z" fill="currentColor"></path></svg>