<svg width="24" height="24" viewBox="0 0 24 24" fill="none" xmlns="http://www.w3.org/2000/svg"><path d="M15.781 7.531c0 .204-.058.404-.166.573a1 1 0 0 1-.441.38.94.94 0 0 1-.57.059.97.97 0 0 1-.503-.283 1.05 1.05 0 0 1-.27-.528c-.037-.2-.018-.407.056-.595.075-.189.201-.35.363-.463a.95.95 0 0 1 1.243.128c.185.193.288.456.288.73m2.588 7.8c-2.22 2.321-5.695 3.297-10.363 2.918q.196 1.534.55 3.23a.72.72 0 0 1-.089.517.66.66 0 0 1-.553.317.64.64 0 0 1-.411-.153.7.7 0 0 1-.23-.388 42 42 0 0 1-.605-3.664 37 37 0 0 1-3.496-.636.66.66 0 0 1-.41-.3.72.72 0 0 1-.087-.517.7.7 0 0 1 .285-.431.63.63 0 0 1 .493-.095 37 37 0 0 0 3.08.576c-.36-4.889.573-8.528 2.788-10.853 3.59-3.77 9.285-2.712 10.39-2.461.246.056.472.186.651.373s.302.424.356.682c.24 1.158 1.25 7.124-2.35 10.886m-1.23-.677a8.4 8.4 0 0 1-4.767-2.523 9.1 9.1 0 0 1-2.404-4.994c-1.77 2.092-2.472 5.35-2.11 9.723 4.175.382 7.285-.353 9.283-2.206zm2.296-9.917a13.2 13.2 0 0 0-4.04-.238c-1.66.171-3.068.672-4.204 1.5.045 1.94.8 3.789 2.11 5.162s3.075 2.166 4.927 2.214c.79-1.19 1.27-2.664 1.432-4.404a15.2 15.2 0 0 0-.225-4.234" fill="currentColor"></path></svg>