<svg width="33" height="31" viewBox="0 0 33 31" fill="none" xmlns="http://www.w3.org/2000/svg"><g clip-path="url(#clip0_1882_1970)" fill="currentColor"><path d="M2.745 14.313H4.47c.15.43.257.887.259 1.35 0 1.395-.952 2.278-2.18 2.28-1.14 0-2.14-.875-2.14-2.3 0-.443.143-.888.321-1.154l.496.26c-.12.22-.22.559-.22.871 0 .866.604 1.459 1.552 1.459.991 0 1.575-.682 1.573-1.38 0-.22-.023-.399-.102-.571H2.745v-.813M1.78 10.86l-.34 1.315 1.11.27.335-1.286.545.133-.335 1.286 1.309.318.401-1.445.545.133-.605 2.235-4.052-.985.547-2.105.545.133m2.229-1.664.169-.286c.286-.487-.012-.856-.277-1-.41-.225-.715-.02-.88.26l-.215.365 1.203.661Zm-2.106-.221.715-1.218c.394-.673.991-.942 1.609-.603.538.296.697.728.705 1.171l2.2.095-.549.801-1.84-.176-.246.42 1.452.798-.37.721L1.907 8.98m9.719-6.01.801 1.476c-.327.33-.695.633-1.116.847-1.28.648-2.531.24-3.101-.81-.53-.976-.19-2.238 1.116-2.9.408-.206.88-.289 1.207-.259l-.008.544c-.256 0-.615.07-.9.216-.794.402-1.059 1.193-.618 2.006.46.849 1.356 1.032 1.994.708.2-.102.353-.206.476-.352l-.595-1.099.744-.377Zm1.654 1.527L12.315.568l.818-.187.966 3.928-.819.188ZM16.901.75c-.19-.115-.437-.218-.682-.21-.352.011-.537.206-.529.443.008.265.308.459.81.818.573.415.883.747.9 1.243.016.508-.464 1.112-1.406 1.14-.435.014-.923-.098-1.242-.365l.29-.472c.225.15.488.309.864.298.347-.012.644-.2.63-.58-.013-.443-.585-.722-.926-.964-.415-.305-.764-.542-.782-1.078-.017-.542.535-.998 1.291-1.021.478-.015.864.14 1.068.32l-.284.43m1.526 3.52L19.264.87 18.01.582l.13-.529 3.325.764-.129.528-1.254-.288-.834 3.402-.819-.187Zm10.327 10.899-.025.496c-.047.929.415 1.453 1.577 1.508.864.042 1.424-.417 1.47-1.271l.029-.587-3.05-.146Zm3.581.754c-.084 1.642-1.071 2.161-2.078 2.114-1.377-.066-2.16-.959-2.088-2.387l.066-1.32 4.17.199-.07 1.394ZM6.426 27.756l-.567-.602 2.41-2.12-.008-.007c-1.17.428-2.266.77-3.356 1.114l-.305-.324c.47-1 .942-2.008 1.51-3.076l-.008-.008-2.41 2.12-.454-.482 3.178-2.625.7.742a41.343 41.343 0 0 1-1.592 2.906l.008.01c.547-.224 2.138-.843 3.217-1.169l.658.7-2.98 2.825m4.513-2.11-1.09 2.07c-.34.717-.309 1.208.298 1.477.58.257 1.04-.118 1.32-.71l.94-2.181.683.303-1.001 2.313c-.439.928-1.307 1.18-2.208.78-1.03-.456-1.338-1.182-.864-2.184l1.154-2.205.766.34m4.796 2.017c-.168-.142-.395-.282-.638-.31-.349-.044-.564.122-.594.357-.035.264.23.5.666.93.5.498.753.872.688 1.364-.067.504-.64 1.027-1.575.911-.433-.053-.895-.236-1.168-.549l.363-.42c.198.181.43.378.805.424.343.042.668-.099.719-.476.059-.441-.46-.801-.758-1.093-.36-.363-.666-.651-.598-1.184.07-.538.69-.903 1.442-.812.474.058.83.27 1.003.477l-.35.38m3.336-.417-1.39.176.148 1.098 1.36-.172.072.538-1.36.172.177 1.292 1.646-.208.072.538-2.478.314-.545-4.004 2.224-.282.072.538m3.316-6.584c.014.006.035 0 .049 0 0 .013.012.013.02.019-.005.005 0 .022 0 .028-.012.004-.018.025-.03.029-.018.003-.033-.006-.049 0-.004-.01-.012-.042-.02-.05.004-.005.028-.024.03-.028m.719-.198c.011.003.037 0 .049 0v.066c-.016.004-.034 0-.05.01-.01-.008-.003-.018-.02-.02.005-.015 0-.034 0-.047l.02-.01Zm-.339-.213a.883.883 0 0 1 .249.01c.011.005 0 .036.01.047.005.01.058.025.07.029-.004.009.002.028 0 .037-.002.01-.027.021-.03.029-.005-.004-.023 0-.029 0-.004-.01-.027-.021-.03-.029-.003-.01.005-.028 0-.037-.113 0-.109-.004-.148.068-.049-.002-.082-.006-.12-.01-.005-.053-.033-.129.03-.144m.553-.065h.04c.015.056.02.07.01.143h-.081V20.2c.01-.004.027 0 .03-.01m-.852-.144h.04c.009.038.017.068.019.125.025.011.049.028.07.038 0 .002-.006.053-.01.038v.018c-.011.01-.039 0-.049.01-.005.004-.033.059-.039.068a.894.894 0 0 1-.129-.019c-.008-.045-.004-.068-.01-.115.118-.05.05-.027.08-.135 0-.006.03-.026.03-.028m1.349-.136s.043.014.05.018c-.005.011 0 .034 0 .047-.019.002-.01.012-.02.02-.008-.005-.032 0-.04 0-.004-.01-.02-.016-.02-.02-.005-.013.007-.034 0-.047.005-.002.03-.015.03-.019Zm.846-.27c.014.006.035-.005.049 0 .035.015-.008.078-.01.087-.012-.003-.03.004-.039 0-.006-.002-.008-.017-.02-.019.004-.018 0-.04 0-.056a.18.18 0 0 0 .02-.01m-1.482-.012h.11l.019.05c-.01 0-.02.032-.02.038-.05 0-.102-.006-.139-.01 0-.02.004-.045 0-.068.01-.004.028 0 .03-.01Zm-.864-.066c.016.007.034-.008.05 0 .015.007.007.045.01.068h-.071s-.01-.044-.01-.057l.02-.01"></path><path d="M22.004 20.316c.004.021.004.042 0 .047-.004.006-.018.016-.026.014-.007-.002-.02-.023-.023-.046-.004-.023-.04-.074-.074-.075a.46.46 0 0 1-.136-.025v-.004l-.023-.06c.012-.093.031-.173.043-.173.012 0 .065-.074.072-.074.008 0 .026.008.028.015 0 .008.03.046.057.05.027.003.088.028.088.049 0 .02.013.083.03.093.015.01-.044.168-.04.19h.004Zm-.018.271c-.013.004-.025-.011-.027-.03 0-.021.012-.078.021-.074.01.002.022.017.024.034 0 .015-.006.068-.02.072l.002-.002Zm-.272.178v.019s-.006.01-.012.008c-.008 0-.017-.008-.017-.018 0-.009.004-.02.01-.02.003 0 .021.005.021.011h-.002Zm-.278-.352c0 .02-.012.041-.028.045-.013.006-.08.065-.115.063-.035-.002-.118-.029-.116-.044 0-.017.01-.059.024-.06.014-.002.035-.018.035-.021 0-.004.01-.02.01-.027 0-.007.012-.017.027-.017l.014-.008.021-.01c.01-.031.024-.056.03-.056a.04.04 0 0 1 .027.02c.004.009.07.098.07.119v-.004Zm1.655-.739c-.002-.023-.045-.04-.092-.036l-.031-.017-.008-.004c-.012-.03-.035-.053-.053-.05a.042.042 0 0 0-.031.022c-.006.007-.026.032-.034.032-.007 0-.015-.036-.017-.081l-.008-.023v-.004a.088.088 0 0 0-.041-.013c-.012 0-.041.026-.043.06-.002.034-.01.133-.014.139-.004.005-.016.01-.02.007-.006 0-.027.004-.035.015-.008.012-.065.038-.112.029-.047-.01-.142.085-.168.085a.374.374 0 0 0-.082.013c0 .004-.014.02-.014.027 0 .007-.008.013-.016.011-.007-.002-.025-.062-.03-.142-.001-.08-.032-.314-.068-.326-.035-.011-.12.068-.125.068-.006 0-.016-.01-.021-.024-.006-.014-.032-.042-.046-.038-.013.002-.143.064-.252.066l-.098-.004c-.022 0-.063-.01-.07-.009-.093.015-.026.108-.05.184l-.01.026c-.033.012-.06.027-.06.034 0 .008-.028.027-.061.04l-.01.015-.008.01.012.043c.002.008.041.01.084.006.043-.006.047.1.041.106-.005.006-.017.017-.025.017s-.018-.007-.02-.017c0-.01-.037-.038-.076-.043-.037-.008-.147-.065-.155-.124l.014-.038c.008-.022.059-.028.07-.047l.012-.023c.004-.05.026-.094.05-.098.02-.002.078-.023.076-.034 0-.012-.01-.042-.026-.048a3.382 3.382 0 0 0-.64-.087l-.038.021-.017.01c0 .026-.008.047-.014.045-.006 0-.09.011-.176.008a3.258 3.258 0 0 1-.355-.021c0-.01-.063-.05-.07-.048-.008.002-.024.023-.024.03 0 .01-.02.022-.027.02-.008 0-.026-.002-.028-.01 0-.007-.037-.038-.074-.04a.434.434 0 0 0-.153.02c-.01.013-.041.043-.053.041l-.006-.006-.021-.02-.008-.03s-.012-.005-.024 0c-.013.003-.15.07-.266.083l-.076-.025-.024-.008c-.014-.032-.033-.058-.041-.056-.01 0-.03 0-.037.003-.008.004-.018.02-.018.025 0 .006-.006.02-.014.027a.203.203 0 0 1-.08.007h-.141c-.01-.002-.027-.006-.033-.006a.1.1 0 0 0-.03.006c-.01.002-.102 0-.201-.002h-.048l-.02-.004a1.196 1.196 0 0 1-.162.014c-.062 0-.256.024-.282.068h-.053c-.06-.006-.049-.068-.1-.08l-.027-.007a.25.25 0 0 1-.094.013l-.016.004-.05.013c-.005.025-.108.044-.232.044-.123 0-.446-.016-.452-.035l-.012-.024v-.006l-.043-.005c-.014 0-.135.068-.233.068s-.378-.002-.412-.004c-.033-.002-.196 0-.36.01l-.167-.006c-.037 0-.125-.023-.178-.01l-.031.008c-.016.032-.04.059-.055.057v-.008l-.006-.01c.002-.017-.014-.034-.033-.04-.02-.005-.094.058-.11.056v-.008l-.006-.01c.002-.016-.02-.032-.05-.035a.63.63 0 0 0-.173.007v.01l-.006.01c0 .014-.026.028-.06.028-.036 0-.126-.015-.126-.033l-.01-.015-.006-.007c-.014-.006-.033-.008-.045 0-.01.005-.057.056-.078.056-.022 0-.073-.007-.073-.016 0-.01-.076-.04-.088-.029-.012.013-.031.042-.035.04a.03.03 0 0 0-.016-.006c-.006 0-.01-.007-.01-.015s-.005-.025-.011-.026c-.006 0-.089-.016-.175-.016s-.317.01-.325.023a.411.411 0 0 1-.188.063l-.057-.017-.031-.01c-.004-.032-.169-.06-.365-.063a59.893 59.893 0 0 0-.838 0c-.006.002-.018.021-.018.03 0 .01-.02.026-.045.026-.023 0-.076-.02-.076-.04l-.018-.01-.068-.036-.277.029c-.003 0-.011.015-.011.022 0 .008 0 .025-.002.025 0 0-.041.023-.08.027h-.106c-.012-.044-.03-.078-.041-.078-.012 0-.043.015-.048.034l-.011.025-.004.007h-.026c-.004 0-.021-.017-.023-.028 0-.012-.08-.036-.17-.036-.09 0-.332.015-.34.034-.007.019-.119.006-.125-.027l-.01-.007-.017-.014s-.047.006-.1.01c-.055.002-.165.019-.17.036l-.01.017-.004.008c-.014 0-.051-.033-.083-.076l-.072.011c-.07.01-.027.047-.06.068l-.02.014h-.065c-.004 0-.025-.021-.03-.035-.001-.01-.021-.03-.039-.034-.02-.005-.102 0-.11.012-.007.011-.223.045-.465.045-.243 0-.953.012-.964.027-.012.015-.098.041-.173.032l-.035.019c-.024.011.004.053-.049.068-.086.023-.123-.023-.2-.01-.05.01-.039.06-.059.069l-.037.017c-.05-.004-.094 0-.094.011 0 .01-.045.04-.086.042-.041 0-.131.026-.131.04 0 .013-.037.026-.083.028-.045.002-.125.055-.133.112l-.013.019c-.01.013-.042.013-.05.028l-.01.02c0 .014-.009.03-.019.03a.072.072 0 0 0-.045.026c-.008.015-.033.05-.043.047-.01 0-.022.023-.02.048l-.011.011-.053.047c-.014.016-.047.027-.075.025v.004l-.033.045c.018.091.053.17.078.175.028.003.083.03.085.053 0 .022.021.074.04.075l.016.017.01.012c.012.026.041.043.065.041l.006.006c.012.01-.002.057.01.068l.005.006c.024 0 .046.013.05.025.001.011.013.028.013.028s.018.008.04.01c.02 0 .087.034.097.066l.012.01h.004c.031.005.055.026.05.047l.007.011.006.011s.039-.003.068-.007c.03-.002.184.074.304.078.121.001.468.018.468.037l.008.016.006.009c.013.006.06.002.106-.006.045-.007.538.086 1.05.087.513.002 2.015.008 2.082.014h.03a.887.887 0 0 0 .187 0c.036-.012.028-.06.04-.069l.025-.015c.078.004.149.006.157.006l.006.01.01.017c0 .022.046.041.105.041h.036l.02-.004c.026.006.068.014.091.017l.018-.005.011-.004c.01-.013.018-.032.016-.04 0-.007.026-.024.057-.028.03-.002.092.072.1.07a.16.16 0 0 0 .047-.008l.008-.01.011-.016c0-.017.05-.03.11-.03s.218.013.216.028l.004.011v.01c.017.011.047.02.066.02.02 0 .077-.015.082-.032.006-.017.118-.024.128-.013.01.013.037.044.047.042l.039.002.006-.01.004-.007c-.002-.017 0-.032.008-.034.005 0 .364-.014.787-.012.423.002 1.603 0 1.606 0a.064.064 0 0 0 .014-.028c0-.01.124-.032.265-.032.14 0 .503-.01.507-.023.006-.013.028-.042.04-.04.01.002.019.02.017.042h.004l.047.036a.229.229 0 0 0 .053-.066l.008-.006.037-.027c.072.01.13.025.13.038 0 .012.085.036.091.023.006-.013.153-.044.314-.044l.603-.003c.006-.002.018-.023.018-.03 0-.008.007-.024.02-.024.01 0 .03.008.03.016a.1.1 0 0 0 .016.041h.004c.033.014.102 0 .12-.007l.023-.01c.004-.02.024-.038.043-.038.02 0 .079.023.084.052l.018.005.018.006a.09.09 0 0 0 .049-.034c.008-.015.125-.02.127-.01 0 .012.03.04.057.042.027 0 .149.002.162-.004l.006-.01.01-.016c.006-.017.131-.033.282-.033.151 0 .549-.007.553-.017.006-.009.027-.038.037-.038.01 0 .027.008.031.02.004.01.053.035.102.035.049 0 .178 0 .178-.003l.008-.03c.006-.014.04-.03.075-.038h.017l.043.009c.008.034.1.06.202.06.102 0 .368.008.378.006v-.005l.012-.017c0-.017.025-.033.055-.035.03 0 .076-.024.076-.034 0-.01.026-.034.045-.04l.014-.009.067-.05a.199.199 0 0 1 .078-.009l.006.012.004.007c-.002.017.013.034.033.04.02.004.098.023.104.036.006.013.09.042.178.042s.323-.014.327-.029c.006-.015.02-.03.03-.032a.153.153 0 0 0 .039-.013c.006-.004.01-.032.008-.059a.369.369 0 0 0-.01-.078s-.008-.003-.01-.007-.023-.01-.043-.008v-.003l-.008-.008c.004-.023 0-.044-.01-.046-.01-.001-.043-.022-.043-.032 0-.01.01-.024.024-.03.014-.006.027-.047.03-.093a.734.734 0 0 1 .023-.172c.01-.004.045-.032.049-.053.003-.021.002-.085-.01-.097-.012-.011-.116-.068-.116-.13v-.069c-.008-.034-.008-.064-.004-.066.006-.002.024-.013.038-.011l.004.005.011.017c.006.023.037.044.073.048.035.004.113-.074.133-.074.02 0 .078-.027.088-.057l.024-.01.039-.017c.07.01.131.023.131.029 0 .007.01.04.012.045.002.006.015.01.027.008.012 0 .028.004.028.006 0 0 0 .011.004.019.002.007.01.032.013.03.004-.002.022.013.032.011.01 0 .035-.028.037-.064.004-.038.047-.125.084-.121a.47.47 0 0 0 .123-.021.457.457 0 0 0 .01-.103M12.41 17.755s-.02.01-.038.011c-.017 0-.057-.007-.057-.015s.018-.015.038-.015.058.013.056.019Zm-.87-2.298h.039c0 .159-.053.121-.04 0Zm-.132 1.413c-.015 0-.025-.019-.023-.042.002-.022.012-.064.02-.064.007 0 .015.017.017.038 0 .02.004.066-.012.066l-.002.002Zm1.454 1.828v-.004a.1.1 0 0 0-.033-.015c-.008 0-.028-.066-.018-.138l-.018-.044c-.01-.024-.06-.02-.07-.047-.02-.057.012-.114.01-.163-.006-.1-.065-.074-.08-.116l-.022-.066c.012-.096.012-.18-.002-.186-.014-.005-.043-.04-.041-.066.002-.026-.075-.102-.075-.123 0-.02-.015-.076-.033-.081-.018-.008-.033-.116-.03-.122a.254.254 0 0 1 .09-.01l.022-.009.047-.022c-.015-.004-.03-.015-.033-.027-.002-.01-.016-.02-.027-.02-.012 0-.026-.021-.024-.039v-.007l-.01-.021c-.033-.01-.062-.034-.062-.055 0-.02.015-.068.035-.068l.006.01.004.007c-.002.017.015.036.04.042a.345.345 0 0 0 .11-.008c-.002-.004.014-.019.014-.027a.07.07 0 0 0-.027-.041c-.014-.01-.041-.182-.03-.368l-.023-.038c-.008-.01-.037-.001-.05-.009l-.013-.008a.425.425 0 0 1-.01-.075l.012-.023c.016-.03.059-.02.07-.078.007-.034-.01-.087-.01-.106l-.003-.05c0-.035.006-.071.008-.079.002-.007.004-.003.004-.011 0-.01.017-.028.037-.036.02-.008.037-.04.04-.07.001-.03-.073-.174-.073-.267 0-.093-.012-.349-.024-.36-.014-.011-.045-.034-.043-.042 0-.007.018-.019.031-.023.012-.003.036-.036.034-.064-.002-.028-.014-.083-.024-.083s-.033-.017-.033-.027c0-.01.01-.02.021-.019h.008l.01-.004a.456.456 0 0 0 .027-.13l-.017-.03c-.006-.012-.051 0-.059-.048l-.01-.045c.004-.05.01-.09.012-.09s.006-.005.006-.013c0-.007 0-.028-.004-.043a.23.23 0 0 1 0-.065.221.221 0 0 0-.004-.058v-.01s.01-.026.01-.038l-.01-.089a.538.538 0 0 0-.018-.185c-.01-.004-.043-.05-.047-.091a1.141 1.141 0 0 0-.021-.188c-.01-.002-.043-.03-.043-.051 0-.02-.024-.087-.043-.097-.02-.009-.045-.119-.06-.123-.013-.003-.034-.019-.034-.022a.084.084 0 0 0-.014-.029c-.008-.01-.05-.032-.051-.034a.683.683 0 0 1-.014-.083c-.004-.044-.03-.114-.053-.114s-.084-.013-.088-.028c-.006-.016-.025-.029-.047-.03l-.014-.01c-.013-.01-.01-.044-.02-.057l-.009-.013a3.769 3.769 0 0 0-.31-.008h-.188c-.072.006-.139.038-.15.07l-.01.006c-.014.007-.04 0-.05.01l-.009.007c0 .023-.008.042-.016.044a.144.144 0 0 0-.043.015c-.005.004-.01.026-.01.047 0 .02 0 .06-.003.06a.129.129 0 0 0-.032.01c-.013.006-.027.053-.03.104a1.34 1.34 0 0 1-.015.182v.012l.02.153c-.004.2-.02.37-.031.375-.014.006-.047.05-.051.085l-.006.201v.021c.002.081.013.18.01.288l-.006.18c-.002.293-.016.536-.03.542-.014.005-.047.305-.05.655-.003.35 0 1.279.003 1.292l.012.006.016.007c.02 0 .035.055.035.121 0 .067.015.275.035.285.02.01.045.128.059.134.014.006.045.057.045.102 0 .046.016.17.035.175.02.003.035.123.037.128l.008.006.014.011c.02 0 .045.01.055.021v.006l.006.032c-.008.072 0 .135.013.139.014.005.095.077.145.077.051 0 .194-.023.206-.05l.01-.007.01-.007c.017 0 .035-.012.04-.025.007-.013.046-.04.08-.038a.371.371 0 0 0 .119-.015.077.077 0 0 0 .013-.051l.014-.008.031-.017c.05.01.147.017.22.017.072 0 .288.006.29.015 0 .008.01.042.014.04.003-.002.021.014.029.012.008 0 .027 0 .033-.006.006-.004.012-.03.014-.055.002-.023.045-.074.092-.085h.055c.012.002.06.019.09.011l.016-.004c.017-.013.04-.085.05-.16l-.017-.048m3.178-1.228c0 .02-.006.037-.012.04-.005.001-.023-.007-.029-.024-.006-.015.016-.087.024-.087.007 0 .015.05.015.069l.002.001Zm-.074-.942s-.02.017-.04.017c-.019 0-.062-.011-.06-.02.002-.012.02-.02.037-.02.018 0 .063.015.06.023h.003Zm-.453.633v-.038c.026.007.041.049 0 .038Zm.984-1.588c-.014-.011-.006-.047-.02-.057l-.012-.01c-.015 0-.027-.005-.03-.01 0-.006.005-.018.009-.018h.02c.017-.015.033-.087.033-.159 0-.072-.01-.267-.024-.272a.111.111 0 0 1-.047-.08.453.453 0 0 0-.015-.127c-.008-.002-.042-.074-.038-.148l-.015-.049-.01-.03c-.034-.006-.059-.066-.059-.136s-.031-.271-.072-.29l-.008-.044-.004-.02a.163.163 0 0 0 0-.048.129.129 0 0 1-.034-.03l-.033-.036-.014-.016c-.03-.013-.049-.089-.043-.17l-.004-.008-.01-.02c-.033-.01-.06-.048-.062-.086 0-.036-.04-.12-.078-.121-.04-.004-.151.025-.153.047 0 .023-.02.08-.026.074-.006-.005-.01-.043.004-.096.014-.053-.172-.093-.178-.09-.008.004-.016.03-.016.052 0 .02-.01.068-.02.072-.011.002-.038.01-.06.013-.023.006-.057.019-.057.028 0 .01-.014.027-.031.033-.016.005-.037.089-.035.178.004.089-.026.3-.04.305-.011.003-.047.05-.047.096s-.011.173-.025.178c-.014.006-.043.116-.043.235 0 .12-.012.442-.024.447-.013.006-.05.127-.06.258l.004.106c0 .011.015.057.01.087-.014.057-.071.034-.081.116v.013c.004.03.006.063 0 .072v.02l-.01.211c.006.233 0 .43-.013.436-.014.005-.05.165-.051.343l-.006.767.01.005c.01.006.029-.003.039 0h.01a.249.249 0 0 1 .019.107c0 .041-.01.14-.012.145l.012.02c.01.016.031 0 .049.009l.006.004c.014.036.053.064.086.064.033 0 .145-.002.145-.004s.012-.023.012-.032c0-.01.027-.025.063-.026.033-.002.133-.016.14-.029.008-.013.095-.044.179-.044.084 0 .323-.01.347-.024l.098-.042c.021-.01.005-.032.02-.047l.01-.013a.092.092 0 0 0 .066-.072c.001-.03.056-.135.117-.144l.016-.014c.035-.03-.018-.41.01-.5l.01-.03c.033-.01.058-.042.056-.07-.002-.029-.014-.084-.023-.084-.01 0-.034-.017-.034-.026 0-.01.01-.027.022-.032.012-.006.035-.18.033-.377l.014-.169c.008-.113-.014-.187-.01-.288l.004-.096c.041-.027.076-.067.076-.09 0-.022-.025-.09-.056-.1l-.014-.011m2.602.554s-.01.015-.014.013c-.004 0-.021-.017-.017-.026a.018.018 0 0 1 .021-.016c.01.002.016.021.01.029Zm-.284 1.356c0 .015-.012.025-.022.021-.011-.002-.021-.015-.021-.03s-.004-.053 0-.055c.006 0 .014-.017.017-.017h.032l-.006.08v.001Zm-.2-.95s-.014.014-.033.016c-.018 0-.077-.003-.077-.017 0-.013.02-.023.043-.02.024.001.067.013.067.02Zm1.181.36c-.015-.007-.027-.022-.027-.035 0-.013.025-.06.059-.074l.01-.017c.01-.019.007-.244 0-.26l-.008-.013c-.024-.024-.036-.047-.028-.049a.279.279 0 0 0 .057-.08l-.012-.04c-.013-.043-.064-.031-.08-.067-.01-.021.018-.061 0-.097-.008-.017-.053-.015-.059-.029l-.03-.049c.017-.142.056-.265.087-.272v-.004l.022-.033c-.01-.071 0-.143.021-.159.022-.015.04-.036.037-.043 0-.008-.004-.032-.013-.04a.121.121 0 0 0-.043-.023c-.006 0-.01-.026-.01-.06s0-.104-.004-.106c0-.002-.002-.025 0-.05v-.013.011a1.112 1.112 0 0 1 .021-.2l-.021-.08-.01-.034c-.033-.013-.05-.116-.04-.227l-.02-.084-.01-.034c-.034-.013-.061-.059-.061-.102 0-.044-.016-.169-.035-.176-.02-.01-.051-.125-.071-.133-.02-.007-.033-.036-.031-.06l-.014-.012c-.014-.011-.033 0-.049-.01-.02-.01-.006-.03-.02-.047l-.006-.007a.457.457 0 0 0-.046-.021.73.73 0 0 1 .017-.125l-.033-.057c-.006-.011-.041-.011-.05-.019-.01-.01-.001-.024-.009-.038-.014-.022-.05-.013-.07-.028l-.01-.01c0-.02-.016-.041-.034-.045-.02-.004-.1-.034-.105-.06-.006-.027-.04-.08-.065-.084l-.004-.004-.006-.005c.004-.023 0-.046-.008-.052a.408.408 0 0 0-.12.002l-.046-.011c-.041-.011-.022-.023-.04-.057l-.005-.011h-.122c-.058 0-.217.004-.225.007-.008.004-.016.02-.016.027 0 .007-.01.026-.023.03-.012.004-.037.108-.026.224l-.03.049c-.015.02-.058-.002-.072.047l-.023.087c.014.148.018.271.008.273-.008.002-.045.074-.05.148a1.899 1.899 0 0 1-.02.263c-.01 0-.034.013-.036.02 0 .005-.022.08-.027.16v.05c0 .14.023.378 0 .49l-.016.078c-.023-.006-.045.002-.045.017 0 .015.004.138.006.282l-.006.116-.014.293c.002.32.014.585.026.59.011.003.047.157.047.33 0 .175.007.637.017.64.01 0 .045.043.05.088.001.046-.007.165-.008.175l.013.013.01.01c.021 0 .043.014.047.035.004.02.027.093.045.097.018.004.075.07.096.07.022 0 .088-.027.098-.059l.031-.01.043-.013a.53.53 0 0 0 .126.006c.006-.004.012-.026.014-.045 0-.02.033-.07.064-.07.032 0 .106-.078.112-.078.006 0 .017.023.015.042 0 .018.008.066.014.072.006.005.02.01.034.013.013.002.035-.025.033-.063a.382.382 0 0 1 .021-.119c.004-.002.026-.015.043-.015.018 0 .071.011.073.023.004.013.092.047.19.053l.031-.017c.012-.008 0-.036.01-.048.008-.013.026-.002.04-.01l.029-.014c.006-.061.08-.11.164-.11l.034-.02.013-.009c.002-.026.02-.055.04-.062.017-.008.037-.078.037-.154 0-.075.021-.31.047-.318l.013-.015.01-.013c.006-.02.02-.036.034-.038.013 0 .03-.042.035-.085h.01l.01.005c-.013-.011-.048-.085-.063-.089m3.459-.112s-.013-.008-.021-.006a.27.27 0 0 0-.041.002c-.006.002-.01.032-.01.066s.006.13.014.139h.006l.011.005c.016 0 .03-.004.03-.006 0 0 .021-.034.025-.066a1.074 1.074 0 0 0-.01-.136"></path><path d="M23.166 16.213s-.014.013-.03.013l-.017.011c-.024.014-.004.038-.02.057l-.008.01c-.033.01-.06.026-.06.036 0 .01-.01.02-.02.02s-.033-.009-.035-.032l-.006-.005c-.01-.01-.053-.018-.059-.029l-.004-.007a.112.112 0 0 0-.004-.048c-.003-.01.002-.034.008-.036a.254.254 0 0 1 .09-.01l.03-.013.012-.005c.01-.029.023-.051.03-.051.009 0 .024.011.036.026.01.015.06.057.06.065l-.003-.002Zm-.14.505c0 .03-.023.06-.054.065-.03.006-.14-.012-.145-.025-.006-.013-.033-.043-.05-.043-.018 0-.085-.06-.093-.125a.604.604 0 0 1 .014-.186c.006-.002.045-.015.088-.015s.155.01.157.019c.002.01-.024.028-.057.028-.034 0-.13.004-.135.008-.006.004-.01.036-.008.064 0 .029.049.082.102.08.053 0 .184.098.184.129l-.002.002Zm-.704 1.164c-.034 0-.063-.012-.065-.025 0-.013-.006-.032-.002-.042.002-.01.01-.04.014-.038.004.002.025-.011.045-.01.017.003.043.117.008.115Zm.049.327c0 .01-.01.021-.024.027-.012.005-.049.038-.05.05-.003.008-.02.018-.036.018a.325.325 0 0 1-.069-.008c-.006-.003-.01-.037-.01-.07 0-.032.012-.108.026-.113.014-.006.045-.036.047-.059 0-.02.016-.074.027-.072.01.002.022.036.024.074 0 .038.023.123.033.123.01 0 .034.02.034.03h-.002Zm-.11-1.71c0-.017.004-.03.008-.029.004.002.015-.011.021-.011.006 0 .02.02.02.036a.262.262 0 0 1-.006.063c-.004.003-.022.01-.03.007-.007-.002-.013-.051-.013-.07v.004Zm-.247 1.204c0 .023-.01.042-.018.042-.007 0-.021-.011-.029-.023-.008-.013-.041-.041-.063-.04v-.003s0-.03-.002-.038l-.004-.015c-.02-.013-.045-.02-.056-.015-.012.003-.037.04-.037.075 0 .037.015.135.035.14.02.008.031.122.027.118-.004-.002-.023.013-.039.013s-.057-.005-.063-.013a.962.962 0 0 1 0-.197v-.068c0-.013-.02-.066-.01-.097l.004-.011a.2.2 0 0 1 .087-.015c.033 0 .107.024.105.045l.022.021.004.004c.02-.002.039.057.037.08v-.003Zm-.182-.532v-.017s.01-.004.021-.002c.012.002.026.012.024.02-.002.007-.012.012-.022.012-.01 0-.027-.005-.025-.013h.002Zm.121-.291c0 .015-.005.03-.013.032-.008.002-.028-.002-.03-.014-.002-.01.012-.018.032-.018h.013-.002Zm1.66-2.135-.014-.036c-.026-.008-.047-.027-.047-.044 0-.017.008-.059.015-.06a.18.18 0 0 0 .063-.088l-.01-.041-.01-.04c-.033-.004-.058-.047-.058-.097a.605.605 0 0 0-.028-.176c-.01-.004-.045-.042-.047-.074-.002-.034-.027-.127-.054-.132l-.01-.01s-.004-.038-.01-.047c-.012-.02-.041-.006-.059-.02-.016-.01 0-.03-.01-.046l-.007-.014c-.034-.013-.061-.041-.06-.06h-.003l-.016-.017c-.03-.004-.053-.014-.053-.021a.069.069 0 0 0-.006-.027.189.189 0 0 0-.043-.013l-.011-.01c-.016-.013-.012-.047-.03-.058-.014-.008-.043 0-.049-.01l-.01-.015c0-.024-.017-.045-.039-.047-.021-.002-.088-.027-.088-.055l-.01-.008-.011-.01c-.032-.005-.06-.016-.06-.024a.797.797 0 0 0-.252-.042h-.143c-.043 0-.1-.009-.139 0-.043.01-.025.037-.049.057l-.014.012c-.02 0-.039.015-.04.034-.005.019-.007.085-.009.09-.002.006-.021.018-.031.018a.087.087 0 0 0-.033.007.27.27 0 0 0-.01.095c0 .046-.031.161-.069.178l-.011.076v.011c0 .021-.014.042-.03.046-.015.004-.031.036-.033.068a.435.435 0 0 1-.02.127c-.006 0-.04.034-.047.068-.006.034-.021.144-.035.148-.014.004-.045.043-.047.083a.35.35 0 0 1-.031.121c-.008 0-.036.046-.036.09 0 .043 0 .166-.002.176l-.007.003c-.047.023-.06-.005-.07.057-.005.023.009.059.009.068l.004.069c-.008.047-.026.09-.04.096-.013.006-.044.065-.044.12 0 .055-.01.22-.024.221-.014.004-.033.11-.02.23l-.025.08c-.012.035-.065.031-.07.039l-.016.024c.004.173-.006.317-.02.322-.014.006-.031.186-.017.39l-.038.07-.004.008c-.03.017-.054.195-.054.396v.182c0 .081.013.178 0 .26l-.012.064c-.032.002-.057.013-.057.026 0 .014.008.046.018.05.01.002.02.005.02.007 0 0 .019.015.019.025 0 .01-.012.028-.024.036a.118.118 0 0 0-.04.083.69.69 0 0 0 .015.127c.006 0 .041.025.047.048.004.022.01.128.008.136-.002.006-.022.017-.032.017-.01 0-.037.025-.053.057l.01.049.012.059c.031 0 .059.05.059.113v.285l.012.005.021.012c.02 0 .037.017.037.037 0 .021.008.086.016.095h.004l.031.012c.05-.006.096-.027.108-.044.01-.019.069-.078.067-.11 0-.032.049-.068.056-.066.008 0 .018-.013.022-.027.002-.013.043-.032.088-.032s.172 0 .178-.004c.008-.002.018-.02.018-.03 0-.01.035-.028.078-.032.043-.006.177-.012.184-.012l.006.012.006.011c-.002.021 0 .046.01.055h.004l.047.017c.073-.01.153 0 .176.02a.41.41 0 0 0 .202.007l.004-.014.008-.045c-.004-.066 0-.121.008-.121.01 0 .037-.01.04-.014.007-.003.01-.034.007-.06-.002-.029-.022-.078-.043-.08-.02-.002-.08-.007-.079-.013.002-.004-.014-.025-.014-.04s.018-.08.042-.108c.021-.028-.104-.066-.11-.08-.006-.013-.033-.041-.053-.04l-.008-.003-.006-.004c.004-.019.026-.034.047-.036.024 0 .067.01.065.02 0 .009.023.031.047.033a.5.5 0 0 0 .094 0l.008-.03c.004-.013.03-.034.037-.032a.075.075 0 0 0 .031-.01.062.062 0 0 0 .012-.028c0-.01.026-.027.053-.034.03-.008.09-.034.092-.057a.187.187 0 0 0-.004-.07c-.006-.008-.017-.025-.027-.025-.01 0-.035-.043-.04-.085-.003-.042-.137-.053-.144-.034-.006.019-.03.042-.041.042-.014 0-.038.017-.04.026 0 .01-.015.034-.025.034-.01 0-.024-.02-.024-.055 0-.034.032-.113.065-.117.033-.004.131-.025.137-.038.006-.015.04-.03.063-.03l.006-.012.02-.034c-.005-.05.011-.09.037-.09a.238.238 0 0 0 .078-.018c.002-.005.012-.104.008-.22l.017-.032c.012-.022.057 0 .07-.068l.022-.108c-.011-.13.006-.248.038-.26l.011-.016s.006-.036.01-.038c.057-.029.108.026.13-.038l.029-.09c-.055-.024-.098-.109-.098-.187 0-.077.03-.295.065-.312l.005-.008.008-.015v-.135a.794.794 0 0 1 .014-.18.193.193 0 0 0 .047-.015c.006-.003.012-.034.014-.06.002-.027.033-.065.066-.06a.37.37 0 0 0 .12-.016c.006-.006.018-.019.018-.028 0-.01-.026-.042-.057-.053l-.012-.016c-.014-.017 0-.037-.02-.047l-.031-.015c-.043.002-.078-.004-.078-.012 0-.007.003-.022.01-.024a.167.167 0 0 0 .039-.015c.006-.004.013-.036.015-.065a.44.44 0 0 0-.015-.128l.011-.038c.01-.035.06-.03.07-.048l.017-.028c-.004-.047.015-.09.045-.09l.007-.016.008-.014a.522.522 0 0 1-.004-.092l-.004-.01m1.226-4.373c.014.004.035 0 .049 0 .002.013.012.013.02.019-.005.007 0 .03 0 .038-.01 0-.016.017-.02.019-.03.009-.05-.01-.07-.01.003-.017 0-.04 0-.057l.019-.01m-.553-.556h.04c.005.04.005.029.01.078-.02.005-.015-.01-.02.01-.01 0-.032-.005-.04 0-.01-.008-.004-.018-.02-.02 0-.013.005-.036 0-.047a.192.192 0 0 0 .03-.019m.377-.071c.112-.02.075.038.12.069l.059.019v.106c.09.047.076.064.049.163-.032 0-.09.01-.12 0-.018-.006-.018-.048-.03-.057-.013-.012-.033 0-.048-.01-.014-.01-.008-.047-.02-.057-.012-.01-.035 0-.049-.01-.018-.01-.014-.056-.03-.067-.015-.01-.032-.002-.048-.01 0-.022.004-.045 0-.068.027-.011.049-.013.07-.028.022-.02-.01-.038.05-.048m-.194.91c-.01.006-.018.019-.016.028 0 .01.024.034.043.038.02.004.036-.074.026-.074-.01 0-.043 0-.053.008Z"></path><path d="M24.432 10.36s-.011-.01-.01-.019c.002-.011.008-.013.014-.005.004.007.004.026-.004.026v-.002Zm-.339.434c.004.032-.021.059-.055.059-.033 0-.127-.017-.127-.038 0-.021.004-.066.008-.065.004.002.17.014.174.044Zm-.166-.322s.006-.013.01-.013.023.015.023.024c0 .01-.006.017-.012.014-.006-.004-.023-.017-.021-.025Zm.072.06c.04 0 .04.038 0 .038v-.037Zm-.276-.018c-.021.106-.049.193-.06.193-.012 0-.03-.013-.028-.029l-.004-.01c-.008-.022-.05-.022-.059-.03l-.013-.013a.126.126 0 0 0 0-.04.031.031 0 0 0-.018-.005c-.006 0-.04-.017-.041-.027 0-.01.014-.01.014-.013 0 0 .029-.011.062-.015h.006l.141-.011Zm-.15-.192c.162 0 .129.053 0 .038v-.038Zm-1.333 1.13s-.03 0-.055-.021c-.023-.02-.03-.078-.021-.076.008.002.015.019.015.036l.01.017.006.011c.03.01.05.025.043.032h.002Zm-.239.827s.01-.019.022-.024c.012-.006.056-.067.064-.067s.024.027.026.06c0 .035-.112.039-.112.031Zm-1.303-1.23c-.039 0-.072.02-.074.04-.002.021-.012.09-.02.09-.007 0-.02 0-.021-.01-.002-.011-.016-.026-.028-.036-.013-.01-.056-.059-.056-.093s.045-.111.092-.111.145.12.105.123l.002-.002Zm-.278-.13-.015.025c.003.049-.004.098-.018.108h-.006l-.037.005c-.04.002-.073.012-.073.02 0 .007-.015.033-.023.033a.027.027 0 0 1-.022-.013c-.002-.008-.02-.043-.025-.042-.006 0-.147-.007-.304-.003h-.143c-.072 0-.221-.036-.307-.01l-.026.008c-.008.026-.02.049-.027.049-.008 0-.022-.01-.028-.02-.006-.012-.068-.039-.127-.039s-.225.002-.231.004c-.006.002-.02.023-.02.034 0 .01-.084.038-.176.05l-.06-.02c-.03-.009-.026-.058-.05-.068l-.031-.011a.344.344 0 0 0-.106.024v.006l-.014.021c-.005.015-.043.028-.082.028a.493.493 0 0 1-.16-.022c-.008-.012-.055-.046-.09-.046-.036 0-.138.01-.144.023-.005.013-.049.045-.082.045s-.13.012-.137.025c-.006.013-.026.04-.033.038a.05.05 0 0 1-.022-.023c-.002-.01-.05-.04-.094-.04-.043 0-.163-.003-.166-.005-.004-.004-.02-.027-.018-.044l-.004-.007-.004-.008a.244.244 0 0 1-.049-.006c-.008-.002-.03.025-.033.051l-.014.012-.018.013s-.082-.007-.182-.01l.051.006-.096-.013c-.09.008-.164.02-.164.032 0 .01-.014.03-.022.033a.047.047 0 0 1-.035-.018.396.396 0 0 0-.186-.05 1.56 1.56 0 0 0-.337.035c-.002.01-.05.04-.092.04-.043 0-.16-.015-.173-.034-.01-.019-.137-.036-.145-.038l-.015.013c-.026.021.027.088-.09.057l-.034-.01c-.008-.031-.056-.058-.106-.058a.784.784 0 0 0-.211.028l-.106.038-.018.006c-.007.028-.017.051-.025.051s-.021-.01-.025-.02c-.006-.012-.088-.039-.17-.039-.083 0-.34.014-.342.029l-.006.011-.005.01c-.02.005-.046-.021-.057-.057h-.067l-.066-.004c-.018.038-.079.07-.138.07-.056 0-.227.025-.23.044l-.012.024-.006.01s-.024-.014-.034-.027c-.01-.015-.111-.05-.21-.05-.097 0-.373.031-.395.07l-.092-.005c-.026 0-.03.016-.05.01-.058-.017-.027-.059-.058-.078l-.025-.015c-.041.002-.077 0-.079-.01-.002-.007.022-.017.053-.02.032-.004.114-.068.141-.067.028.002.104-.072.132-.073.029 0 .135-.016.145-.036.01-.021.135-.042.14-.048a.031.031 0 0 0 .008-.026c0-.01.024-.025.05-.03l.013-.012.012-.011c.004-.025.045-.048.09-.048s.172-.01.18-.022c.008-.014.051-.042.08-.038.03.004.108-.078.134-.082.027-.005.082-.019.082-.026 0-.01.084-.029.176-.023l.032-.019c.017-.011.005-.047.029-.057.045-.02.116.008.149 0l.031-.007c.01-.033.032-.061.05-.061a.44.44 0 0 0 .091-.008l.008-.01.01-.018c.006-.023.041-.042.08-.042.04 0 .116-.015.124-.032.008-.019.023-.034.033-.034.01 0 .031-.019.031-.03 0-.012.024-.027.041-.027l.018-.01.016-.007a.112.112 0 0 1 .094-.06c.037 0 .121-.016.125-.027.002-.011.041-.04.075-.04.033 0 .123-.01.129-.023.006-.013.027-.043.037-.041.01 0 .026-.011.031-.023.006-.011.047-.045.08-.045.034 0 .13-.015.142-.034.012-.02.12-.035.121-.035 0 0 .018-.017.02-.026 0-.01.055-.04.111-.051h.026c.041 0 .07.005.12.01h-.006c.02-.006.139-.008.264-.008l.02.007c.029.01.021.057.049.067l.135.047c.078.011.18.02.225.02.045 0 .172.012.18.025.008.014.047.042.075.04.027-.002.117.082.15.082.034 0 .126.022.124.04l.004.007.006.01a.32.32 0 0 0 .082.009c.031 0 .123.027.137.059l.026.007.098.03c.017.021.103.03.192.025l.027.032c.01.012.006.042.02.048.017.007.058 0 .08 0l.059.004c.066.003.123.017.129.032.004.013.057.041.11.043.053 0 .172.017.172.027 0 .01.037.038.073.038.035 0 .145.019.143.03 0 .011.013.028.013.03 0 0 .057.006.126.006.068 0 .282.019.284.027 0 .009.01.04.013.037.004-.002.038.012.067.01.03-.002.125.076.172.08.047.005.216 0 .232 0 .015 0 .092-.008.18-.02l.039.021.008.004c.008.03.03.057.05.059.02.002.085.013.087.024.002.012-.018.023-.047.025l-.008.013-.008.006Zm4.257-.684-.031-.01c-.016.012-.03.027-.032.037 0 .01-.015.022-.023.026-.008.002-.024-.007-.024-.026 0-.02.024-.07.053-.078l.006-.015.014-.04c-.014-.053-.073-.096-.131-.1l-.073-.006s-.049.01-.039.01h-.014a.387.387 0 0 0-.12.007l-.025-.007c-.04-.014-.03-.061-.058-.078l-.016-.008c-.02 0-.035-.02-.035-.041s-.014-.084-.034-.091a.701.701 0 0 0-.264-.05l-.041-.02c-.028-.016-.008-.06-.07-.069-.046-.005-.11.025-.15 0l-.011-.007c-.006-.029-.018-.051-.03-.051s-.053.028-.068.062l-.04.004-.062.006c-.022-.046-.086-.084-.145-.084s-.216-.01-.218-.022c-.004-.014-.12-.042-.248-.036l-.034-.02-.006-.003c-.007-.03-.047-.055-.086-.057-.039 0-.13-.017-.13-.028 0-.012-.034-.038-.068-.038a.49.49 0 0 1-.139-.025c0-.007-.035-.043-.068-.045-.034 0-.167-.072-.25-.069l-.028-.015c-.014-.007-.012-.05-.03-.057l-.037-.015c-.045.004-.084-.002-.088-.013-.002-.011-.075-.042-.15-.044a1.803 1.803 0 0 1-.275-.022c0-.01-.057-.044-.118-.046a2.396 2.396 0 0 1-.227-.013c-.006-.004-.012-.032-.014-.057-.002-.024-.023-.07-.047-.072l-.01-.007c-.015-.012-.011-.036-.03-.048h-.001c-.004-.011-.033-.019-.067-.019-.033 0-.123-.01-.125-.02-.004-.012-.055-.044-.104-.052a.625.625 0 0 0-.178.014c-.006.005-.018.015-.018.02a.064.064 0 0 1-.006.023.04.04 0 0 1-.02.006c-.007 0-.023-.027-.02-.068l-.014-.038v-.004a.088.088 0 0 0-.051-.011l-.01-.014c-.012-.015-.004-.047-.02-.056-.01-.006-.04 0-.049-.01l-.008-.008c0-.028-.035-.056-.074-.064-.04-.008-.127.08-.149.078a.49.49 0 0 1-.127-.023v-.004l-.01-.024c.006-.04-.004-.076-.022-.082a.08.08 0 0 1-.04-.032c-.007-.013-.028-.044-.04-.042-.01 0-.037 0-.043.002-.006.002-.018.023-.02.032 0 .01-.043.03-.088.03s-.162-.026-.168-.058c-.006-.032-.034-.144-.059-.153l-.01-.01s-.004-.042-.01-.047c-.013-.012-.047-.01-.06-.02-.014-.01-.012-.05-.03-.056-.047-.017-.111.015-.158 0-.028-.01-.034-.065-.04-.068a.257.257 0 0 0-.1-.01c-.052.01-.035.057-.048.068l-.036.021c-.074-.005-.143-.022-.152-.038-.01-.013-.044-.049-.06-.049l-.013-.015c-.008-.025-.05-.047-.092-.05-.043-.001-.178-.014-.186-.028-.008-.013-.122-.043-.24-.043-.117 0-.452 0-.452-.002 0 0-.023-.029-.027-.053h-.002l-.049-.032-.231.022c-.006 0-.02.017-.02.027 0 .01-.074.028-.157.028-.082 0-.262.02-.264.03-.002.01-.03.038-.047.035l-.006-.006-.01-.008c0-.022-.008-.04-.017-.037-.01 0-.055.009-.057.024-.002.013-.035.032-.059.032l-.014.02-.011.014c-.004.023-.016.042-.024.042s-.027.01-.033.023c-.006.013-.037.043-.059.043-.021 0-.078.014-.086.03-.008.018-.07.09-.065.13l-.01.024-.007.02a.075.075 0 0 0-.06.056l-.013.011c-.014.012-.033 0-.049.01l-.01.005c-.01.035-.037.061-.056.061-.02 0-.077.01-.083.019a.12.12 0 0 1-.07.044.622.622 0 0 0-.132.019c-.002.007-.037.047-.064.049-.028.004-.084.019-.088.036-.004.017-.055.045-.061.045-.006 0-.008.021-.008.048l-.014.01h-.003a.074.074 0 0 0-.044.018.216.216 0 0 1-.115.047c-.045 0-.17.01-.177.021-.005.012-.049.046-.082.046s-.131.013-.137.03c-.006.017-.04.036-.064.036l-.014.019-.018.023c0 .019-.01.034-.015.034a.08.08 0 0 0-.036.022.19.19 0 0 1-.111.044c-.046 0-.17.027-.185.06l-.013.008-.02.01c-.018 0-.031.019-.031.043l-.01.006c-.033.019-.094-.002-.14 0l-.12.004c-.12.004-.222.026-.226.055-.004.026-.041.085-.076.085-.036 0-.134.026-.143.059l-.014.007-.018.012c-.017 0-.033.017-.033.04l-.008.005-.06.047c-.01.016-.114.035-.232.038h-.105c-.012 0-.036-.017-.06-.01l-.04.014c0 .03-.028.055-.063.055s-.131.013-.137.03c-.006.017-.04.036-.065.034l-.012.021c-.01.017.004.036-.01.048-.015.013-.05 0-.06.019-.01.017.002.047 0 .068-.01.064-.024.041-.059.047l-.092.013c-.102-.002-.192.006-.198.02-.006.01-.049.045-.082.045s-.13.011-.131.024c-.002.014-.02.033-.028.033s-.025.011-.037.026c-.01.013-.09.044-.163.034l-.045.017-.017.006c-.012.034-.043.06-.07.059-.026 0-.081.036-.089.064l-.014.006-.043.015c-.07-.008-.139 0-.155.019-.015.019-.13.051-.13.06 0 .01-.03.038-.054.035a.205.205 0 0 0-.08.013c-.002.004-.014.019-.014.028 0 .01-.031.03-.066.029-.036 0-.116.073-.14.068-.025-.006-.158.062-.25.057l-.033.02c-.012.008 0 .035-.01.048-.012.019-.059.01-.07.028l-.007.012c0 .026-.035.043-.072.038a.343.343 0 0 0-.123.017c-.002.005-.016.018-.018.026 0 .01-.016.03-.026.03-.01 0-.027.016-.033.03-.006.016-.041.031-.078.035a.775.775 0 0 0-.153.02c-.018.008-.12.065-.123.067a.68.68 0 0 1-.061.032l-.024.04c-.008.011 0 .042-.01.047l-.027.015a.59.59 0 0 0-.163.006c0 .006-.017.04-.029.042-.012.002-.06.072-.065.07-.003 0-.043.004-.08-.004l-.031.015-.018.008c0 .026-.021.05-.045.05a.255.255 0 0 0-.08.018c-.002.006-.014.025-.012.042l-.004.007v.006a.188.188 0 0 1-.057 0c-.02-.002-.064.008-.066.013-.002.004-.014.02-.014.029 0 .01-.03.026-.06.034l-.01.015-.012.017c0 .017-.016.032-.04.032-.023 0-.088.017-.088.027 0 .011-.011.036-.015.034-.004-.002-.038.015-.067.017-.03.002-.11.062-.137.06-.027-.001-.155.065-.237.06l-.04.022s-.001.042-.01.047l-.01.01a.116.116 0 0 0-.048.007c-.006.004-.01.027-.01.046v.068c0 .004-.015.013-.023.015-.008 0-.037.025-.04.044a.724.724 0 0 1-.017.113.568.568 0 0 1-.088.122c-.012 0-.03.01-.03.015 0 .005-.017.059-.017.108s.063.157.127.164l.014.008h.004c.004.027.03.053.055.059.025.005.092.038.094.06 0 .023.025.076.047.078.021.002.09.015.09.027 0 .011.049.045.098.047.049 0 .182.019.184.03.004.012.06.033.117.027a.485.485 0 0 1 .155.022s.008.018.018.033c.01.013.045.03.072.028.028 0 .134.013.14.029.005.013.076.041.146.041.07 0 .269.032.279.072l.07.004c.037 0 .08-.013.13-.01l.142.01c.14 0 .273-.002.294-.006a3.58 3.58 0 0 1 .206-.005h.472c.486.005.887-.004.895-.023.008-.017.126-.01.137.025l.01.007.01.008c.012 0 .023.002.027 0a.11.11 0 0 0 .036-.04c.008-.017.186-.036.393-.036.208 0 .73-.008.731-.015.002-.01.051-.044.096-.048.045-.001.194-.017.202-.032.008-.015.021-.03.027-.03.006 0 .02.008.022.019 0 .011.037.036.074.036s.145-.011.15-.027c.003-.015.056-.032.1-.034h.254c.117 0 .493-.026.507-.058l.016-.008.015-.01c.02 0 .036-.009.036-.019s.015-.037.023-.037.022.01.028.022c.006.014.156.044.325.044.168 0 .613-.01.617-.02.004-.012.02-.046.027-.046.008 0 .022 0 .03-.004l.006.013.005.011c-.003.021 0 .04.01.042a.209.209 0 0 0 .04.004c.013 0 .06.002.078.006.017.002.033.005.043.005.01 0 .033-.017.045-.036.012-.02.127-.034.137-.024v.003l.004.01c0 .017.035.034.08.04h.045c.046 0 .089-.012.096-.025.008-.013.177-.04.363-.038.186.002.683.004.693 0v-.005l.014-.025a.034.034 0 0 1 .043-.025l.006.01c.008.013-.004.032.01.038.006.003.366.017.397.01l.04-.012c.006-.03.015-.057.023-.057s.026-.01.035-.023c.01-.013.038-.043.046-.043.007 0 .02.01.021.022.004.014.051.044.1.044.049 0 .174.002.178.006.002.002.004.01.004.018 0 .008.006.033.016.042h.004l.031.012a.621.621 0 0 0 .088-.014l.008-.024c.004-.01.125-.025.264-.03h.163a.794.794 0 0 0 .218-.027.136.136 0 0 1 .088-.046c.04-.002.164-.003.164-.002 0 0 .02.016.02.025 0 .01.06.046.121.05h.028l.354.005.856-.006c.004 0 .012-.017.012-.024 0-.008 0-.025.002-.025 0 0 .024-.017.045-.017.022 0 .073.006.075.015 0 .008.01.042.013.04.004-.002.022.013.03.011.008 0 .03-.007.037-.02.008-.014.15-.046.302-.046.15 0 .552-.011.554-.025.002-.013.04-.036.065-.037l.01-.016.011-.019c0-.02.035-.034.08-.03l.028-.007c.025-.01.021-.05.04-.06l.038-.02c.077.006.143.03.145.055l.006.006.02.017a.093.093 0 0 0 .066-.032l.004-.016c.012-.064-.031-.14 0-.202l.004-.01c.035-.02.063-.047.063-.059-.002-.01-.037-.037-.075-.04a2.56 2.56 0 0 0-.176-.003.04.04 0 0 0-.04.02c-.007.014-.181.05-.373.057l-.03-.013s-.015-.058-.039-.068l-.086-.028a.347.347 0 0 1-.076.085c-.008 0-.022-.01-.026-.019-.006-.01-.07-.097-.07-.155 0-.06.015-.194.021-.196.006-.001.02 0 .022.006 0 .006.031.04.059.044.029.004.088.019.088.028 0 .01.015.036.035.04.02.006.104.017.106.025 0 .01.037.043.072.047.035.002.14.015.145.028.006.014.05.044.084.044.036 0 .137-.02.141-.045.004-.025.032-.078.055-.078a.214.214 0 0 0 .08-.02c.002-.003.014-.018.014-.028a.11.11 0 0 0-.013-.047h-.004l-.112-.038c-.01-.026 0-.062.021-.077.022-.016.04-.036.038-.046 0-.01.017-.02.035-.02l.018-.01c.021-.012.005-.029.02-.048l.011-.015c.031-.013.057-.03.055-.04a.115.115 0 0 0-.022-.056h-.006s-.025.002-.029 0c-.014-.014-.008-.044-.02-.057-.007-.008-.029-.004-.039-.01l-.04-.028c.023-.047.117-.087.209-.087.092 0 .343.01.348.023.006.013.06.045.108.045.05 0 .18.01.182.02 0 .012.036.046.069.043.033-.004.106.081.114.08a.06.06 0 0 1 .025.005l.018-.014.013-.01a.065.065 0 0 1 .05-.054l.007-.013.012-.021c.004-.053.025-.097.045-.1.02-.002.094-.044.11-.09l-.018-.05v-.004c-.012-.008-.053-.012-.094-.006l-.025-.008h-.006c-.008-.017-.01-.032-.006-.037.004-.006.039-.01.072-.01h.114l.014-.011c.013-.012.005-.048.02-.057.013-.012.04-.006.048-.02l.014-.024c.004-.049.078-.087.168-.083l.028-.017c.031-.02-.004-.068-.01-.078l-.006-.01c-.02-.005-.035-.031-.035-.058 0-.027.017-.125.037-.127.02 0 .084-.026.088-.047.004-.023.024-.086.035-.087.012 0 .034-.02.038-.033.004-.013.033-.03.062-.037.03-.008.089-.037.089-.06a.358.358 0 0 0-.014-.1h-.006m4.886 14.136-.568.598-2.4-2.13-.007.008c.546 1.087.997 2.114 1.447 3.133l-.307.324c-1.072-.363-2.151-.727-3.303-1.178l-.008.008 2.4 2.129-.457.48-2.99-2.825.702-.74a44.96 44.96 0 0 1 3.137 1.272l.007-.008c-.28-.507-1.06-1.981-1.492-2.993l.662-.697 3.177 2.618Zm-9.082 1.867.889 2.156c.335.721.735 1.02 1.346.757.582-.252.595-.833.32-1.428l-1.076-2.122.685-.297 1.137 2.252c.43.932.054 1.728-.849 2.12-1.034.449-1.8.191-2.266-.814l-.952-2.293.768-.333M6.496 4.06l-.995.954.807.786.974-.934.395.385-.973.934.95.926L8.77 6.075l.395.384-1.714 1.61-2.94-2.868 1.592-1.528.396.384m21.455 1.539-.995-.955-.808.788.976.934-.396.384-.975-.933-.95.926 1.083 1.07-.396.385-1.678-1.643 2.94-2.87L28.35 5.21l-.396.385m2.201 3.145-.71-1.169-.988.563.697 1.144-.484.275-.697-1.144-1.162.663.764 1.3-.483.276L25.9 8.645l3.599-2.05 1.138 1.87-.484.275m-7.71-5.525.3.155c.509.265.883-.03 1.028-.29.223-.401.006-.691-.288-.845l-.384-.199-.656 1.179Zm.18-2.042 1.277.664c.704.366.996.938.659 1.542-.294.529-.737.692-1.193.709l-.05 2.127-.84-.513.141-1.783-.44-.229-.792 1.423-.754-.343 1.992-3.597Zm7.15 10.257.09.317c.153.54.633.599.927.52.454-.122.52-.474.433-.785l-.116-.405-1.334.354Zm1.653-1.28.384 1.353c.212.744-.015 1.343-.7 1.525-.597.159-1.024-.04-1.353-.347l-1.626 1.434-.196-.941 1.432-1.13-.13-.467-1.611.426-.265-.765 4.07-1.088"></path></g><defs><clipPath id="clip0_1882_1970"><path fill="#fff" transform="translate(.408)" d="M0 0h32v31H0z"></path></clipPath></defs></svg>