<svg width="24" height="24" viewBox="0 0 24 24" fill="none" xmlns="http://www.w3.org/2000/svg"><path d="M21.759 6.391c-.638-1.099-2.32-1.346-4.875-.721a7.995 7.995 0 0 0-12.819 7.356c-2.308 2.39-2.274 3.807-1.823 4.584.425.736 1.311 1.056 2.478 1.056.81-.017 1.615-.128 2.4-.333a7.995 7.995 0 0 0 12.816-7.353c1.041-1.083 1.735-2.112 1.97-2.993.163-.61.114-1.147-.147-1.596m-9.76-1.056a6.68 6.68 0 0 1 6.5 5.182c-1.42 1.338-3.345 2.71-5.172 3.76-2.295 1.318-4.287 2.14-5.875 2.59A6.66 6.66 0 0 1 12 5.334M3.396 16.94c-.122-.21-.054-.604.185-1.084q.356-.676.857-1.254a8 8 0 0 0 1.5 2.61c-1.437.242-2.334.087-2.542-.273M12 18.666a6.6 6.6 0 0 1-3.213-.828 31 31 0 0 0 5.202-2.405c1.798-1.032 3.39-2.151 4.672-3.256A6.67 6.67 0 0 1 12 18.667m8.618-11.024c-.142.526-.516 1.127-1.052 1.76a8 8 0 0 0-1.5-2.612c1.184-.195 2.28-.18 2.541.27q.113.198.011.582" fill="currentColor"></path></svg>