<svg width="24" height="24" viewBox="0 0 24 24" fill="none" xmlns="http://www.w3.org/2000/svg"><path d="M21.19 13.39a2.05 2.05 0 0 0-1.55-.388c1.565-1.546 2.356-3.082 2.356-4.589 0-2.158-1.773-3.913-3.954-3.913a4 4 0 0 0-1.677.353 4 4 0 0 0-1.367 1.013 4 4 0 0 0-1.368-1.013 4 4 0 0 0-1.677-.353C9.773 4.5 8 6.255 8 8.413c0 .897.27 1.768.838 2.69a2.67 2.67 0 0 0-1.229.685L5.723 13.63h-2.39c-.353 0-.693.138-.943.382a1.3 1.3 0 0 0-.39.923v3.26c0 .347.14.678.39.923s.59.382.943.382h8.665a.7.7 0 0 0 .162-.02l5.332-1.304a1 1 0 0 0 .1-.032l3.238-1.349.037-.016c.31-.152.577-.38.774-.66a1.97 1.97 0 0 0 .187-1.937 2 2 0 0 0-.634-.791zm-9.237-7.586a2.64 2.64 0 0 1 1.456.412c.432.276.77.672.972 1.137.05.12.136.222.245.294a.677.677 0 0 0 .988-.294c.201-.465.54-.86.973-1.137a2.64 2.64 0 0 1 1.455-.412c1.42 0 2.621 1.195 2.621 2.61 0 1.59-1.315 3.389-3.804 5.208l-.924.208a2.24 2.24 0 0 0-.44-1.942 2.3 2.3 0 0 0-.814-.638 2.4 2.4 0 0 0-1.016-.228h-3.276c-.72-.95-1.057-1.784-1.057-2.609 0-1.414 1.2-2.609 2.621-2.609m-8.62 9.13h2v3.262h-2zm16.95.67-3.167 1.32-5.201 1.272h-5.25v-3.644l1.886-1.843a1.32 1.32 0 0 1 .943-.383h4.17c.266 0 .52.103.707.287a.97.97 0 0 1 0 1.383 1 1 0 0 1-.707.287h-2.332a.67.67 0 0 0-.472.19.645.645 0 0 0 0 .923.67.67 0 0 0 .472.191h2.666q.075 0 .149-.016l5.582-1.257.026-.006a.73.73 0 0 1 .51.048.7.7 0 0 1 .348.37c.065.16.067.339.006.501a.7.7 0 0 1-.339.377z" fill="currentColor"></path></svg>