<svg width="24" height="24" viewBox="0 0 24 24" fill="none" xmlns="http://www.w3.org/2000/svg"><path d="M20.593 7.926a4.227 4.227 0 0 1-4.223-4.222.704.704 0 0 0-.703-.704h-3.519a.703.703 0 0 0-.704.704v11.61a1.759 1.759 0 1 1-2.513-1.59.7.7 0 0 0 .402-.636V9.334a.704.704 0 0 0-.827-.693C5.367 9.2 3 12.07 3 15.315a6.685 6.685 0 0 0 13.37 0v-3.493a9.1 9.1 0 0 0 4.223 1.03.704.704 0 0 0 .703-.704V8.63a.704.704 0 0 0-.703-.704m-.704 3.487a7.67 7.67 0 0 1-3.811-1.42.704.704 0 0 0-1.115.572v4.75a5.278 5.278 0 0 1-10.556 0c0-2.278 1.464-4.322 3.519-5.067v2.434a3.166 3.166 0 1 0 4.926 2.633V4.407h2.155a5.64 5.64 0 0 0 4.882 4.882z" fill="currentColor"></path></svg>