<svg width="94" height="31" viewBox="0 0 94 31" fill="none" xmlns="http://www.w3.org/2000/svg"><path d="M27.607 13.229V0h3.67v13.229h-3.67ZM41.802 2.946H36.77v2.806h3.708v2.786H36.77v1.724h5.032v2.967h-8.699V0h8.7v2.946ZM52.145 0h3.448v13.229H54.13l-7.216-6.575v6.575h-3.49V0h1.462l7.255 6.654V0h.003Zm10.398 0c4.731 0 7.517 2.144 7.517 6.415 0 4.11-2.325 6.814-7.497 6.814h-5.291V0h5.27Zm.038 10.262c2.564 0 3.728-1.283 3.728-3.646 0-2.025-1.123-3.667-3.77-3.667h-1.604v7.313h1.646ZM80.18 2.946h-5.033v2.806h3.708v2.786h-3.708v1.724h5.032v2.967h-8.698V0h8.698v2.946ZM90.553 0h3.448v13.229H92.54l-7.217-6.575v6.575h-3.489V0h1.461l7.255 6.654V0h.003ZM23.1 9.058c1.789-.668 2.892-2.069 2.892-4.388 0-2.987-1.803-4.67-6.255-4.67h-4.489v13.229h3.67v-3.69h.388l2.803 3.687h4.364l-3.372-4.168Zm-3.424-2.384h-.761V2.967h.962c1.745 0 2.346.7 2.346 1.884 0 1.362-.782 1.823-2.547 1.823ZM10.758 0 7.663 7.112 4.474 0H.804L6.96 13.147h1.368L14.445 0h-3.687Zm6.662 27.737h4.128v2.967h-7.794V16.019h3.667v11.718Zm3.97-5.227c0-4.53 2.606-6.753 6.754-6.753 4.209 0 6.814 2.284 6.814 6.674 0 4.49-2.704 7.074-6.876 7.074-4.005 0-6.691-2.383-6.691-6.995Zm9.782-.018c0-2.547-1.083-3.728-3.005-3.728s-3.005 1.181-3.005 3.748c0 2.646 1.144 3.968 2.988 3.968 1.878 0 3.022-1.383 3.022-3.988Zm15.749-6.473v2.946h-3.868v10.28h-3.666v-10.28h-3.889V16.02h11.423Zm10.278 2.943h-5.03v2.806h3.708v2.786H52.17v1.724h5.029v2.967H48.5V16.019h8.699v2.943Zm9.471 6.111c1.787-.668 2.89-2.069 2.89-4.388 0-2.987-1.803-4.67-6.254-4.67h-4.49v13.229h3.67v-3.687h.388l2.803 3.687h4.364l-3.372-4.171Zm-3.422-2.384h-.762v-3.707h.963c1.744 0 2.345.7 2.345 1.884-.003 1.363-.785 1.823-2.546 1.823Zm7.885 6.555V16.018H74.8v13.226h-3.667Zm7.339-13.226h3.69v9.673c0 3.889-2.648 5.31-6.338 5.31l-.105-2.98c1.992 0 2.756-.866 2.756-2.98v-9.023h-.002Z" fill="currentColor"></path></svg>